<svg xmlns:xlink="http://www.w3.org/1999/xlink" xmlns="http://www.w3.org/2000/svg" class="tuto_arrow tuto_arrow3" viewBox="0 0 200 200" width="200"  height="200" ><path class="tuto_arrowb" d="M11.93,9.64c16.23,23.09,31.21,29.51,42.14,30.94,17.15,2.23,24.94-7.74,47.34-4.3,7.99,1.23,24.4,3.73,33.18,17.08,5.67,8.62,9.2,23.05,3.2,33.89-13.56,24.51-58.74,8.56-74.19,34.06-6.15,10.15-6.25,24.69.38,32.37,8.12,9.42,27.06,9.34,38.88,2.81,8.38-4.63,9.83-10.12,20.03-12.88,2.41-.65,9.71-2.53,18.1.25,7.7,2.55,12.08,7.62,15.67,11.78,6.03,6.98,9.07,14.38,10.65,19.93" stroke="#24B4B1" fill="none" stroke-width="5px"></path><path class="tuto_arrowa" d="M154.81,173.02l14.58,17.65.21.26s.03-.08.03-.08l7.99-21.45" stroke="#24B4B1" fill="none" stroke-width="5px"></path><path class="tuto_arrowc" d="M109.4,53.94c7.68-.31,15.34,4.29,18.69,11.21,3.01,6.24,2.54,13.72.18,20.23" stroke="#24B4B1" fill="none" stroke-width="2px"></path><path class="tuto_arrowc" d="M70.39,130.02c-1.94,2.58-1.74,6.24-.58,9.25,1.68,4.37,5.21,7.98,9.54,9.76,4.33,1.78,9.38,1.68,13.64-.25" stroke="#24B4B1" fill="none" stroke-width="2px"></path><path class="tuto_arrowc" d="M137.86,133.82c9.24-.82,18.72,4.63,22.67,13.03" stroke="#24B4B1" fill="none" stroke-width="2px"></path></svg>