<svg xmlns:xlink="http://www.w3.org/1999/xlink" xmlns="http://www.w3.org/2000/svg" class="tuto_arrow tuto_arrow2" viewBox="0 0 200 200" width="200"  height="200" ><path class="tuto_arrowb" d="M20.22,154.15l3.89,22.09.06.32s.07-.06.07-.06l17.19-14.41" stroke="#24B4B1" fill="none" stroke-width="5px"></path><path class="tuto_arrowa" d="M29.19,162.56c9.91-40.72,30.44-69.85,51.69-73.84,16.85-3.16,28.13,3.64,28.13,3.64,2.98,1.8,9.19,5.54,11.15,13.09,1.43,5.5.22,11.58-2.98,15.95-7.21,9.83-22.27,7.98-24.74,7.67-15.93-1.96-31.83-15.95-34.21-33.43-2.47-18.18,10.78-31.86,17.72-38.93,11.01-11.21,22.95-15.57,34.97-19.96,7.77-2.84,22.04-7.9,41.41-7.65,15.37.2,27.68,3.66,35.52,6.51" stroke="#24B4B1" fill="none" stroke-width="5px"></path><path class="tuto_arrowc" d="M126.76,106.39c.29-1.45.5-3.61-.16-6.04-.56-2.07-1.51-3.45-2.57-5.01-1.62-2.37-3.28-3.94-4.09-4.66-3.36-2.98-6.92-4.49-9.38-5.28" stroke="#24B4B1" fill="none" stroke-width="2px"></path><path class="tuto_arrowc" d="M147.58,19.83c-7.13-1.66-13.69-.21-20.62,1.03-7.43,1.33-14.46,2.77-20.78,6.69" stroke="#24B4B1" fill="none" stroke-width="2px"></path></svg>