<?xml version="1.0" encoding="UTF-8"?><svg xmlns="http://www.w3.org/2000/svg" xmlns:xlink="http://www.w3.org/1999/xlink" viewBox="0 0 595.28 419.53"><defs><style>.cls-1{stroke:#726f70;stroke-width:5px;}.cls-1,.cls-2,.cls-3,.cls-4,.cls-5,.cls-6,.cls-7{stroke-miterlimit:10;}.cls-1,.cls-2,.cls-4,.cls-5,.cls-6{fill:none;}.cls-1,.cls-4{stroke-linecap:round;}.cls-8{fill:url(#Dégradé_sans_nom_8);}.cls-2,.cls-3,.cls-4,.cls-5{stroke-width:2px;}.cls-2,.cls-3,.cls-6{stroke:#6e6e6d;}.cls-9,.cls-10{fill:#fff;}.cls-9,.cls-11{opacity:.35;}.cls-12{fill:#3a3a3a;}.cls-13{fill:#c6c6c6;}.cls-14{fill:#282828;}.cls-3,.cls-15{fill:#a9a9a9;}.cls-4{stroke:#ededed;}.cls-5{stroke:#000;}.cls-16{fill:#ededed;}.cls-17{fill:#333;}.cls-18{opacity:.75;}.cls-18,.cls-11{fill:#999;}.cls-6{stroke-width:4px;}.cls-7{fill:#4c4b4b;stroke:#424141;}</style><radialGradient id="Dégradé_sans_nom_8" cx="420.72" cy="80.87" fx="420.72" fy="80.87" r="61.05" gradientTransform="translate(591.08) rotate(-180) scale(1 -1)" gradientUnits="userSpaceOnUse"><stop offset="0" stop-color="#24b4b1"/><stop offset=".93" stop-color="#279691"/></radialGradient></defs><g id="Calque_1"><path class="cls-10" d="M49.83,199.09c.25.61,1.85,4.01,5.73,1.95,4.78-2.53,8.68-8.34,12.43-16.51,3.71-8.1,7.87-20.8,2.47-38.8-5.41-18-16.48-17.02-16.48-17.02h0c1.32-12.62,2.44-20.26,2.44-20.26l502.64-2.38s7.23,59.7,8.09,116.93h0c-4.2,1.76-18.43,2.76-21.28,2.95-3-11.71-7.69-25.05-14.38-32.36h-.01c.85-2.45,1.05-5.74-1.55-9.04-3.09-3.93-17.7-16.26-31.63-25.47,0-.68-19.62-39.4-77.89-32.5-42.03,4.97-58.62,46.38-58.62,46.38,0,0-12.25,24-11.91,42.89,0,0-.51,7.92-5.45,10.81-4.93,2.9-9.44,2.9-9.44,2.9h-13.48c-.21-2.46-2.3-4.41-4.81-4.41h-18.19c-1.33,0-2.54.55-3.42,1.42-.76.77-1.28,1.79-1.39,2.93l-.48.48s-10.91.19-18.26-.42c-7.34-.62-11.04-8.64-11.17-10.62-.12-1.98-.89-9.9-.89-9.9-3.45-20.8-13.79-38.17-13.79-38.17,0,0-15.26-27.65-50.41-40.04-31.15-10.98-50.26-6.84-62.55-3.57-3.39.9-17.18,5.03-30.38,17.62-13.02,12.41-18.3,33.03-18.39,34.27-2.5,2.24-4.35,4.07-5.24,5.2-2.6,3.3-2.39,6.59-1.55,9.04-6.36,6.95-10.91,19.35-13.93,30.62l-.1-.05c.09-.35.18-.69.28-1.04-11.44,6.73-16.73,1.06-16.73,1.06-.27-8.41-.34-16.76-.26-24.89Z"/><path class="cls-3" d="M321.52,229.56h13.45s4.51,0,9.44-2.9c4.94-2.89,5.45-10.81,5.45-10.81-.34-18.89,11.91-42.89,11.91-42.89,0,0,16.59-41.41,58.62-46.38,58.27-6.9,77.89,31.82,77.89,32.5-9.33-6.18-18.35-10.95-23.4-10.88,0,0-4.25-.6-7.57,2.33h-.01c-7.2-1.05-15.24-.78-15.24-.78,0,0-31.27.76-43.53,7.15,0,0-4.13,2.55-4.16,7.94h0c-1.74.93-3.62,2.12-5.66,3.61-17.49,12.76-29.93,27.36-32.1,32.42-2.16,5.07,1.42,10.04,1.42,10.04-.56.91-1.11,1.96-1.64,3.16-4.94,11.11-6.46,27.53-4.3,39.21h-112.18c.02-.07.03-.13.04-.2,2.16-11.68.64-28.1-4.3-39.21-.53-1.2-1.08-2.25-1.64-3.16,0,0,3.58-4.97,1.42-10.04-2.17-5.06-14.61-19.66-32.1-32.42-2.04-1.49-3.93-2.68-5.67-3.61-.03-5.39-4.16-7.94-4.16-7.94-12.26-6.39-43.53-7.15-43.53-7.15,0,0-8.04-.27-15.24.78-3.33-2.94-7.57-2.34-7.57-2.34-10.42-.14-37.76,20.36-49.8,31.16.09-1.24,5.37-21.86,18.39-34.27,13.2-12.59,26.99-16.72,30.38-17.62,12.29-3.27,31.4-7.41,62.55,3.57,35.15,12.39,50.41,40.04,50.41,40.04,0,0,10.34,17.37,13.79,38.17,0,0,.77,7.92.89,9.9.13,1.98,3.83,10,11.17,10.62,7.35.61,18.26.42,18.26.42l.48-.48c-.02.16-.03.32-.03.49,0,2.66,2.18,4.84,4.84,4.84h18.19c1.33,0,2.54-.55,3.42-1.42.88-.88,1.42-2.09,1.42-3.42,0-.15,0-.29-.03-.43h.03Z"/><path class="cls-17" d="M321.49,229.56c.02.14.03.28.03.43,0,1.33-.54,2.54-1.42,3.42-.88.87-2.09,1.42-3.42,1.42h-18.19c-2.66,0-4.84-2.18-4.84-4.84,0-.17,0-.33.03-.49.11-1.14.63-2.16,1.39-2.93.88-.87,2.09-1.42,3.42-1.42h18.19c2.51,0,4.6,1.95,4.81,4.41Z"/></g><g id="Calque_2"><path class="cls-3" d="M50.86,224.85c.14,4.54.35,9.1.62,13.66l11.12,11.34c-.05-.48-.04-.98.01-1.48.34-3.26,1.92-13.49,4.98-24.58-11.44,6.73-16.73,1.06-16.73,1.06Z"/><polygon class="cls-16" points="78.44 86.92 57.16 108.88 559.79 106.49 539.72 85.9 256.48 86.53 84.24 86.91 78.44 86.92"/><path class="cls-15" d="M546.61,226.38c.07.31.15.62.22.92.04.13.07.25.1.38.12.48.24.96.35,1.44.28,1.17.55,2.31.79,3.42.07.31.14.62.2.93.34,1.54.64,3.01.9,4.39.06.28.11.55.16.82.15.81.29,1.58.42,2.31.09.49.17.97.24,1.42.34,2.07.58,3.75.72,4.9.03.23.05.43.07.62.03.27.04.53.04.8,0,.22-.01.44-.03.65,0,0,0,.03,0,.05-.01.19-.04.39-.07.58,0,.02,0,.04-.01.06h4s13.27-15.83,13.27-15.83c0-3.58-.03-7.19-.08-10.81-4.2,1.76-18.41,2.76-21.28,2.95Z"/><path class="cls-2" d="M567.89,223.43c-4.2,1.76-18.41,2.76-21.28,2.95"/><polygon class="cls-8" points="84.24 86.63 84.24 86.91 256.48 86.53 240.82 74.84 100.9 74.84 84.24 86.63"/><path class="cls-10" d="M65.88,183.72c4.49-9.38,5.68-20.07,3.41-30.21l-2.7.36c.51,2.22.86,4.79.98,7.73.61,15.7-9.09,25.84-9.09,25.84,0,0-3.46,4.22-6.66,1.65l-.36,6.04s1.7,4.39,9.1-3.36c2.16-2.26,3.92-5.12,5.32-8.05Z"/><path class="cls-10" d="M69.29,153.51c-.65-2.88-1.57-5.93-2.9-8.97-5.21-11.95-11.25-11.02-11.25-11.02l-1.37,22.85c1.3,1.73,2.75,1.02,2.75,1.02,5.28-2.77,2.94-16.38,2.94-16.38,0,0,4.94,3.23,7.13,12.86l2.7-.36Z"/><polyline class="cls-6" points="362.83 253.71 250.66 253.71 250.52 253.71"/><line class="cls-2" x1="250.8" y1="253.49" x2="250.79" y2="253.49"/><path class="cls-9" d="M100.9,74.84l-16.66,12.07h-5.8s-21.28,21.97-21.28,21.97c0,0-8.18,39.12-5.7,129.19l8.52,8.69,2.6,2.65s-1.56-125.67,7.03-140.53l20.33-22.27,7.4.3,14.55-12.07h-11Z"/><path class="cls-11" d="M521.38,85.94l18.34-.04,20.07,20.59s10.55,104.91,8.18,127.75l-13.27,15.83s-6.77-99.85-12.06-143.44l-21.26-20.69Z"/><path class="cls-12" d="M50.55,199.43s1.5,4.3,5.76,2.04c4.78-2.53,8.68-8.34,12.43-16.51,3.71-8.1,7.87-20.81,2.47-38.81-5.4-18-16.48-17.02-16.48-17.02l-4.17,70.29ZM51.46,195.12l3.69-61.61s6.04-.94,11.25,11.02c1.32,3.04,2.25,6.09,2.89,8.97,2.27,10.15,1.08,20.83-3.41,30.21-1.4,2.93-3.16,5.8-5.32,8.05-7.4,7.74-9.11,3.36-9.11,3.36Z"/><path class="cls-12" d="M50.8,188.01c3.43,4.58,7.67-.58,7.67-.58,0,0,9.7-10.13,9.09-25.84-.62-15.7-8.11-20.6-8.11-20.6,0,0,2.34,13.62-2.94,16.38,0,0-2.62,1.28-3.97-3.77"/><path class="cls-6" d="M550.61,250.07h4.09s13.27-15.83,13.27-15.83c0-3.58-.03-7.19-.08-10.81,0-.19,0-.37,0-.55-.02-.95-.03-1.9-.05-2.86-.04-1.9-.08-3.81-.13-5.71-.03-.95-.05-1.9-.08-2.85-.03-.96-.06-1.91-.09-2.86,0-.42-.03-.85-.04-1.28-.05-1.47-.1-2.94-.16-4.41-.04-.94-.07-1.89-.11-2.83-.21-5.03-.45-10.01-.72-14.9-.07-1.21-.14-2.42-.21-3.62-.03-.6-.07-1.2-.1-1.79-.15-2.43-.3-4.83-.45-7.19-.06-.89-.12-1.76-.18-2.63-.17-2.62-.36-5.19-.54-7.71-.02-.32-.05-.64-.07-.96-.35-4.7-.71-9.22-1.07-13.5v-.06c-.06-.72-.12-1.42-.18-2.13,0-.02,0-.05,0-.08-.06-.67-.12-1.34-.17-2.01-.03-.35-.06-.69-.09-1.03l-.09-1.02c-.11-1.22-.21-2.41-.32-3.57-.06-.67-.12-1.32-.18-1.97-.04-.47-.08-.93-.13-1.39-.05-.53-.1-1.06-.15-1.58,0-.05-.01-.1-.01-.15-.06-.59-.11-1.18-.17-1.76v-.03c-.08-.87-.17-1.73-.25-2.56-.03-.36-.06-.71-.1-1.05-.05-.5-.1-.98-.14-1.46-.05-.54-.11-1.07-.16-1.58-.05-.52-.1-1.02-.15-1.52s-.1-.98-.15-1.46c-.04-.38-.08-.75-.12-1.11-.08-.8-.16-1.56-.23-2.29-.05-.43-.1-.85-.14-1.25-.04-.41-.08-.8-.12-1.18-.03-.2-.05-.38-.06-.57,0-.05-.02-.11-.02-.16-.05-.4-.09-.78-.13-1.14l-.03-.3c-.02-.17-.04-.34-.05-.5-.06-.5-.11-.96-.16-1.4-.03-.26-.06-.51-.08-.75-.31-2.73-.49-4.22-.5-4.23l-20.07-20.59-283.24.63-15.66-11.69H100.9s-16.66,11.79-16.66,11.79c0,0-.2.14-.41.29h-5.39c-.19.19-21.28,21.96-21.28,21.96,0,0,0,.04-.02.13s-.03.22-.05.39c-.02.08-.03.17-.04.27-.02.11-.03.23-.05.37-.02.13-.04.26-.06.41-.08.59-.18,1.34-.3,2.24-.03.22-.06.46-.09.7-.01.08-.02.17-.03.25-.05.38-.1.78-.15,1.2-.08.59-.16,1.23-.24,1.91-.12.92-.24,1.91-.36,2.98-.22,1.85-.45,3.92-.7,6.18-.07.67-.15,1.36-.23,2.06-.03.39-.07.78-.12,1.17-1.74,16.76-3.84,42.29-4.14,70.39-.06,6.24-.03,12.6.1,19.03.11,11.61.38,12.85.77,19.51l11.12,11.34"/><path class="cls-17" d="M95.07,203.69c-1.39-2.54-4.21-6.48-5.85-6.84-.35-.08-.69-.12-1.01-.12-1.29,0-2.36.64-3.28,1.95l-1.07,1.54-1.27-1.39c-.07-.07-1.68-1.86-2.6-4.54-.33-.96-.54-1.96-.62-2.94-.02-.24-.03-.52-.03-.79,0-2.39.82-4.65,2.44-6.72.51-.65,1.31-1.51,2.38-2.56.27-.27.57-.56.89-.86.72-.7,1.59-1.49,2.81-2.57l.15-.13c.3-.26.6-.53.91-.8.47-.41.96-.83,1.48-1.27.41-.35.82-.7,1.25-1.06l1.9-1.57.92-.75c2.06-1.66,4.14-3.3,6.2-4.88.88-.67,1.77-1.34,2.67-2.01,1.82-1.36,3.69-2.71,5.54-4.01.61-.43,1.21-.85,1.82-1.26,6.57-4.52,12.29-7.94,17-10.16.3-.14.53-.25.75-.36.56-.26,1.1-.49,1.63-.7.29-.13.6-.25.9-.37l.2-.08c1.14-.42,2.09-.73,2.92-.96.43-.12.86-.22,1.27-.29.26-.05.47-.09.67-.11.64-.11,1.25-.17,1.82-.17h.06c.18-.02.53-.05,1.01-.05,1.68,0,4.9.36,7.63,2.76l2.43,2.14-3.2.47c-3.72.55-6.46,1.34-8.15,2.34-5.47,3.27-4.62,8.19-4.59,8.4l.21,1.12-1.02.51c-.56.28-1.18.64-1.87,1.11-3.74,2.55-11.78,14.71-15.95,21.5l-.16.26-.25.18c-6.3,4.52-11.82,9.98-16.43,16.22l-1.4,1.9-1.13-2.07Z"/><path class="cls-14" d="M138.93,148.36c1.43,0,4.27.3,6.64,2.39-3.4.5-6.61,1.29-8.7,2.54-6.51,3.89-5.29,9.97-5.29,9.97-.65.32-1.33.73-2.05,1.22-4.79,3.27-14.98,19.67-16.38,21.95-6.41,4.6-12.08,10.2-16.76,16.55,0,0-3.76-6.91-6.85-7.59-.45-.1-.89-.15-1.33-.15-1.65,0-3.22.74-4.51,2.59,0,0-1.46-1.6-2.29-4.02-.27-.78-.47-1.64-.54-2.57-.02-.22-.03-.45-.03-.68,0-1.8.55-3.79,2.12-5.79.48-.61,1.25-1.43,2.25-2.41.27-.27.56-.55.87-.84.81-.78,1.75-1.63,2.78-2.54.34-.3.69-.61,1.05-.92.47-.41.96-.83,1.47-1.26.41-.35.82-.7,1.25-1.06.61-.51,1.24-1.03,1.89-1.57.3-.24.6-.49.91-.74,1.93-1.56,4.01-3.2,6.17-4.85.87-.66,1.76-1.33,2.66-2,1.8-1.34,3.65-2.68,5.51-3.99.6-.42,1.2-.84,1.8-1.25,5.87-4.04,11.76-7.67,16.79-10.04.25-.12.5-.24.74-.35.54-.25,1.06-.47,1.57-.68.37-.16.73-.3,1.08-.44.97-.36,1.89-.67,2.75-.9.4-.11.79-.2,1.16-.27.21-.04.41-.08.6-.1.58-.1,1.11-.15,1.61-.15.04,0,.09,0,.13,0,0,0,.35-.05.93-.05M138.93,145.36c-.47,0-.84.02-1.08.05-.63,0-1.31.06-2.02.18-.25.03-.48.07-.68.11h-.06c-.46.1-.93.21-1.39.34-.86.23-1.82.54-3,.98h-.04s-.04.03-.04.03l-.21.08c-.3.12-.61.24-.92.38-.45.19-1.04.43-1.66.72-.24.11-.51.24-.78.37-4.76,2.24-10.55,5.7-17.19,10.27-.6.41-1.2.83-1.8,1.25-1.89,1.33-3.77,2.69-5.6,4.05-.91.68-1.8,1.35-2.68,2.02-2.08,1.59-4.18,3.24-6.24,4.91l-.42.35c-.16.13-.32.26-.47.39l-.02.02-.02.02-.68.56c-.41.34-.82.68-1.22,1.01-.44.37-.86.72-1.27,1.08-.51.43-1.01.86-1.49,1.28-.31.27-.63.55-.94.83l-.12.11c-1.21,1.07-2.12,1.9-2.88,2.63-.3.28-.62.59-.91.88-1.11,1.09-1.93,1.97-2.49,2.68-1.83,2.34-2.76,4.91-2.76,7.64,0,.32.01.64.04.95.08,1.07.31,2.19.69,3.28,1,2.92,2.72,4.85,2.91,5.06l2.53,2.77,2.15-3.08c.81-1.16,1.52-1.31,2.05-1.31.21,0,.44.03.68.08.95.31,3.33,3.28,4.87,6.1l2.26,4.13,2.79-3.79c4.51-6.12,9.92-11.46,16.09-15.89l.49-.35.32-.52c5.32-8.67,12.45-18.95,15.52-21.04.63-.43,1.19-.76,1.68-1.01l2.14-1.05-.52-2.23c-.06-.38-.55-4.15,3.89-6.8,1.04-.62,3.21-1.5,7.6-2.15l6.41-.94-4.86-4.28c-3.1-2.73-6.73-3.14-8.62-3.14h0Z"/><path class="cls-17" d="M69.22,259.9l.77-1.29-.78,1.28c-1.11-.66-6.63-4.18-7.72-9.56l-.06-.13v-.27c-.02-.1-.04-.2-.05-.31l-.03-.06v-.3c-.03-.24-.04-.49-.04-.74,0-.32.01-.64.05-.96,0,0,.05-.46.07-.65.16-1.31.42-3.07.73-4.95.08-.47.16-.93.24-1.42.13-.75.28-1.53.42-2.34,0,0,.13-.67.16-.81.27-1.43.58-2.92.91-4.45.05-.28.13-.61.2-.93.24-1.11.51-2.26.79-3.44.08-.35.35-1.45.35-1.45.03-.13.06-.27.11-.41.07-.3.15-.6.23-.91l.08-.32c.16-.63.33-1.27.5-1.91.4-1.5.84-3.02,1.3-4.54.21-.69.42-1.37.63-2.06v-.03l.08-.24c.24-.75.49-1.5.75-2.23.22-.66.45-1.3.68-1.95.02-.07.16-.43.16-.43.72-1.97,1.42-3.74,2.15-5.41l.46-1.04c.47-1.06.98-2.11,1.51-3.16.29-.59.6-1.18.92-1.75.22-.4.44-.81.69-1.21.14-.27.34-.59.55-.92.35-.59.73-1.19,1.13-1.78.24-.35.42-.62.62-.89.78-1.11,1.63-2.17,2.51-3.13l1.71-1.87.82,2.39c.71,2.07,1.97,3.49,1.98,3.5l.38.43v1.05s-.27.4-.27.4c-.68.97-1.24,2.3-1.67,3.94-1.23,4.71,1.05,21.06,2.03,26.97l.05.3-.07.3c-1.4,5.71-2.11,11.63-2.11,17.6,0,2.88.17,5.81.51,8.71l.26,2.25-2.18-.64c-.92-.27-4.13-1.16-6.65-1.16-1.25,0-1.82.22-2.04.35-.82.48-1.39,1.1-1.69,1.85l-.65,1.63-1.51-.9Z"/><path class="cls-14" d="M81.41,193.8c.83,2.42,2.29,4.02,2.29,4.02h0c-.75,1.08-1.4,2.54-1.89,4.44-1.58,6.04,2,27.59,2,27.59-1.41,5.76-2.15,11.77-2.15,17.96,0,3,.18,5.97.52,8.88-.92-.27-4.32-1.22-7.07-1.22-1.1,0-2.1.15-2.8.56-1.05.61-1.87,1.46-2.32,2.58-.2-.12-6.14-3.57-7.06-8.76-.01-.02-.01-.04-.01-.06-.03-.19-.06-.38-.07-.58-.01-.02-.01-.04-.01-.05-.02-.21-.03-.43-.03-.65,0-.27.01-.53.04-.8.02-.19.04-.39.07-.62.14-1.15.38-2.83.72-4.9.08-.46.16-.93.24-1.42.13-.73.27-1.5.42-2.31.05-.27.11-.54.16-.82.26-1.38.56-2.85.9-4.39.06-.31.13-.62.2-.93.24-1.11.51-2.25.79-3.42.11-.47.23-.95.35-1.44.03-.13.06-.25.1-.38.07-.3.15-.61.23-.92.19-.73.38-1.47.58-2.21.4-1.48.83-2.98,1.29-4.49.23-.76.46-1.51.7-2.26,0-.01.01-.03.01-.04.24-.74.49-1.48.74-2.21.22-.65.44-1.29.67-1.93.05-.15.11-.3.16-.44.66-1.81,1.36-3.59,2.11-5.31.15-.35.31-.7.46-1.05.47-1.05.96-2.07,1.47-3.07.29-.58.59-1.15.9-1.71.21-.39.42-.77.65-1.14.17-.31.35-.61.54-.91.36-.6.73-1.18,1.11-1.75.19-.28.38-.56.58-.83.77-1.09,1.58-2.1,2.41-3.01M82.61,188.04l-3.41,3.74c-.91,1-1.79,2.1-2.62,3.27-.22.29-.42.59-.63.9-.44.66-.82,1.26-1.19,1.87-.21.34-.4.66-.58.97-.26.43-.49.85-.7,1.23-.31.56-.64,1.18-.94,1.79-.53,1.04-1.05,2.12-1.52,3.19-.09.21-.16.37-.23.53-.08.19-.17.37-.25.56-.73,1.68-1.44,3.47-2.17,5.46l-.05.14c-.04.11-.08.23-.12.34-.23.65-.46,1.3-.68,1.96-.25.73-.51,1.49-.75,2.25l-.06.18-.09.28v.03c-.2.62-.39,1.24-.58,1.87-.46,1.5-.9,3.05-1.31,4.58-.16.59-.31,1.19-.47,1.77l-.12.46c-.08.31-.16.61-.23.9-.05.16-.09.31-.12.48l-.08.32c-.09.38-.18.75-.27,1.11-.27,1.11-.55,2.3-.8,3.47-.07.31-.14.63-.21.95-.33,1.51-.64,3-.91,4.44-.03.16-.05.29-.08.41-.03.14-.06.28-.08.42-.15.82-.29,1.59-.42,2.33-.09.52-.16.98-.24,1.43-.32,1.94-.58,3.73-.74,5.05-.03.2-.05.4-.07.59v.08c-.05.34-.07.7-.07,1.11,0,.29.01.58.04.86,0,.08.01.15.02.23.02.21.04.39.07.54.01.12.03.24.06.36,1.16,6.07,7.23,9.95,8.44,10.67l3.01,1.79,1.32-3.24c.18-.44.52-.8,1.04-1.1,0,0,.33-.16,1.29-.16,1.84,0,4.42.57,6.22,1.1l4.35,1.28-.53-4.51c-.33-2.84-.5-5.71-.5-8.53,0-5.85.69-11.65,2.06-17.25l.15-.6-.1-.61c-1.34-8.09-3.09-22.39-2.06-26.34.38-1.46.87-2.66,1.44-3.47l.54-.78v-2.11l-.78-.87h0s-1.07-1.22-1.67-2.97l-1.64-4.79h0Z"/><path class="cls-17" d="M94.75,315.45c-12.34,0-21.82-41.32-22.86-46.03l-1.25-5.67,3.84,4.36c4.49,5.09,14.03,12.68,17.45,15.35h.99v1.11c3.29,5.74,7.33,11.01,12.01,15.68l1.62,1.61-2.12.84c-2.78,1.1-7.16,3.47-7.76,5.06-.63,1.7-.22,3.19,1.26,4.53l1.62,1.46-1.95.98c-.92.47-1.88.7-2.84.7Z"/><path class="cls-14" d="M73.35,269.1c5,5.67,16,14.26,18.06,15.86.01,0,.01.01.01.01,3.4,6.01,7.59,11.5,12.44,16.34,0,0-7.5,2.97-8.61,5.93-.76,2.04-.48,4.23,1.66,6.17-.72.37-1.45.54-2.16.54-11.34,0-21.1-43.49-21.4-44.85M67.92,258.41l2.5,11.34c.11.48,2.64,11.89,6.66,23.29,5.76,16.32,11.37,23.92,17.67,23.92,1.2,0,2.38-.29,3.52-.86l3.89-1.97-3.23-2.93c-1.28-1.16-1.17-2.08-.86-2.9.45-.91,3.81-2.96,6.91-4.19l4.24-1.69-3.23-3.23c-4.49-4.48-8.38-9.53-11.56-15.01v-2.2h-1.97c-3.69-2.9-12.61-10.05-16.85-14.85l-7.68-8.71h0Z"/><path class="cls-17" d="M144.67,340.05c-13.08,0-34.53-20.72-35.44-21.6l-2.93-2.85,4.08.28c3.26.22,7.33.34,11.78.34,3.51,0,6.06-.07,6.09-.07h.32s.3.11.3.11c6.8,2.82,13.97,4.6,21.32,5.29l2.27.21-1.09,2c-1.38,2.52-3.07,6.81-2.52,8.45.38,1.15,1.06,1.93,2.07,2.36h3.04l-2.19,2.49c-1.75,1.98-4.13,2.99-7.08,2.99Z"/><path class="cls-14" d="M110.27,317.37c4.01.28,8.42.35,11.88.35s6.13-.08,6.13-.08c6.8,2.82,14.11,4.68,21.75,5.4,0,0-3.63,6.64-2.63,9.64.51,1.55,1.53,2.78,3.21,3.39h.01c-1.54,1.74-3.59,2.48-5.96,2.48-12.52,0-33.81-20.61-34.4-21.18M102.31,313.82l5.87,5.71c2.32,2.25,23.07,22.03,36.49,22.03,3.35,0,6.19-1.21,8.2-3.49l4.4-4.99h-6.03c-.47-.27-.78-.69-.99-1.33-.26-.98.91-4.5,2.41-7.27l2.18-3.99-4.53-.43c-7.2-.68-14.22-2.42-20.88-5.18l-.59-.25-.64.02s-2.55.07-6.04.07c-4.42,0-8.45-.12-11.68-.34l-8.17-.56h0Z"/><path class="cls-17" d="M194.37,330.98c-11.37,0-23.18-2.82-23.3-2.85l-3.03-.73,2.46-1.91c4.13-3.21,7.59-6.15,8.05-6.54l.22-.23.38-.13c8.2-2.54,15.84-6.46,22.71-11.65l1.82-1.38.54,2.22c.7,2.89,2.37,7.33,3.88,8.15.65.35,1.29.53,1.92.53,1.12,0,2.26-.58,3.39-1.73l2.1-2.13.45,2.96c.59,3.88-.19,7.12-2.34,9.62-3.31,3.85-9.78,5.8-19.24,5.8Z"/><path class="cls-14" d="M202.76,308.13s1.84,7.6,4.62,9.11c.83.45,1.72.71,2.63.71,1.43,0,2.95-.64,4.46-2.17,1.67,10.94-8.98,13.7-20.1,13.7s-22.52-2.7-22.95-2.81c4.35-3.38,7.93-6.44,8.16-6.64h.01c8.46-2.63,16.28-6.69,23.17-11.9M204.6,302.99l-3.64,2.75c-6.73,5.09-14.21,8.93-22.25,11.42l-.71.22-.45.45c-.53.45-3.89,3.31-7.96,6.47l-4.92,3.82,6.06,1.46c.12.03,12.1,2.89,23.65,2.89,9.92,0,16.78-2.13,20.38-6.33,2.44-2.85,3.35-6.49,2.69-10.82l-.9-5.92-4.2,4.27c-.83.85-1.61,1.28-2.32,1.28-.37,0-.77-.12-1.2-.35-.84-.55-2.38-4.05-3.14-7.18l-1.08-4.44h0Z"/><path class="cls-17" d="M244.36,270.86c-.36-.74-.79-1.15-1.04-1.36h-1.91l.98-2.13c.6-1.3.75-3.13.43-5.46-.61-4.48-7.79-16.88-11.94-23.5l-.23-.37v-.34c-1.07-7.93-3.43-15.58-7.01-22.75l-1.03-2.06,2.3-.11c2.93-.14,7.56-.92,8.65-2.25,1.12-1.35,1.24-2.82.38-4.52l-.78-1.54,1.63-.56c.12-.04.78-.25,1.8-.25,2.04,0,6,.87,9.54,6.67.61.98,1.19,2.11,1.73,3.34,4.91,11.05,6.72,27.54,4.4,40.09-2.17,11.79-5.13,16.98-5.26,17.19l-1.41,2.43-1.23-2.53Z"/><path class="cls-14" d="M236.59,205.17c1.79,0,5.12.81,8.26,5.95.56.91,1.11,1.96,1.64,3.16,4.94,11.11,6.46,27.53,4.3,39.21-2.15,11.67-5.08,16.71-5.08,16.71-.81-1.66-1.95-2.2-1.95-2.2h0c.68-1.47.93-3.52.56-6.29-.78-5.72-10.7-21.77-12.16-24.1h0c-1.11-8.29-3.58-16.14-7.17-23.33,0,0,7.73-.35,9.74-2.79,1.35-1.63,1.8-3.71.56-6.15,0,0,.49-.17,1.31-.17M236.59,202.17h0c-1.23,0-2.06.26-2.29.33l-3.26,1.12,1.56,3.07c.73,1.44.34,2.23-.2,2.88-.71.73-4.39,1.56-7.57,1.71l-4.61.21,2.06,4.13c3.49,6.99,5.8,14.45,6.85,22.18v.66l.46.74c5.47,8.72,11.25,19.39,11.73,22.91.34,2.53.02,3.92-.31,4.63l-1.97,4.26h3.64c.1.13.21.3.32.52l2.46,5.05,2.82-4.86c.13-.22,3.22-5.63,5.44-17.67,2.37-12.82.52-29.67-4.51-40.97-.56-1.28-1.18-2.46-1.83-3.51-3.92-6.42-8.46-7.38-10.81-7.38h0Z"/><path class="cls-17" d="M243.57,211.91c-2.78-4.55-5.56-5.23-6.98-5.23-.53,0-.84.1-.85.1l-1.21.37-.6-1.12c-.55-1.08-1.5-2.24-2.84-3.43-3.71-3.3-19.29-8.56-24.46-10.15l-.38-.11-.23-.25c-5.3-4.65-11.2-8.5-17.55-11.45l-2.02-.94,1.63-1.52c3.08-2.87,5.24-5.82,5.26-7.18.03-2.02-1.06-3.36-3.36-4.09l-1.87-.6,1.07-1.65c.11-.17,2.76-4.13,9.08-4.13,3.28,0,6.96,1.08,10.94,3.21,1.86.99,3.83,2.24,5.85,3.72,17.26,12.59,30.23,27.53,32.59,33.04,2.46,5.79-1.42,11.28-1.58,11.51l-1.32,1.83-1.18-1.93Z"/><path class="cls-14" d="M198.27,162.03c2.63,0,6,.77,10.23,3.03,1.74.93,3.63,2.12,5.67,3.61,17.49,12.76,29.93,27.36,32.1,32.42,2.16,5.07-1.42,10.04-1.42,10.04-3.14-5.14-6.47-5.95-8.26-5.95-.82,0-1.31.17-1.31.17-.61-1.21-1.64-2.5-3.18-3.87-4.59-4.09-24.4-10.27-25.02-10.46h-.01c-5.37-4.73-11.4-8.69-17.96-11.74,1.02-.95,5.7-5.45,5.74-8.26.04-2.38-1.15-4.5-4.4-5.54,0,0,2.24-3.45,7.82-3.45M198.27,159.03h0c-5.69,0-9.17,3.02-10.33,4.81l-2.14,3.3,3.74,1.2c2.06.66,2.33,1.66,2.31,2.63-.07.73-1.64,3.19-4.79,6.12l-3.26,3.04,4.04,1.88c6.21,2.89,11.99,6.66,17.17,11.2l.46.46.72.23c6.14,1.88,20.69,6.97,23.9,9.83,1.2,1.06,2.04,2.07,2.5,2.98l1.28,2.54,2.32-1.03c.07-.01.2-.03.39-.03.88,0,3.21.44,5.7,4.51l2.35,3.86,2.64-3.67c.19-.26,4.54-6.42,1.75-12.97-2.49-5.82-15.38-20.75-33.09-33.67-2.07-1.51-4.1-2.8-6.02-3.83-4.2-2.24-8.12-3.38-11.65-3.38h0Z"/><path class="cls-17" d="M216.41,309.75c2.41-7.02,4.17-22.18,4.31-23.43v-.33l.21-.36c3.57-6,6.26-12.47,8.01-19.24l.56-2.17,1.79,1.34c2.57,1.93,6.16,4,7.95,4,.09,0,.18,0,.26-.02,1.4-.24,2.34-.95,2.88-2.16l.4-.88h1.31l.31.14c.17.08,1.65.83,2.66,2.9,1.58,3.25,1.18,7.77-1.2,13.44-5.02,11.99-26.24,27.79-27.14,28.46l-3.88,2.87,1.57-4.56Z"/><path class="cls-14" d="M230.39,266.76c.83.62,5.88,4.3,8.85,4.3.18,0,.35-.01.52-.04,1.72-.3,3.18-1.22,3.99-3.02h0s1.14.54,1.95,2.2c.99,2.03,1.48,5.74-1.23,12.2-4.92,11.75-26.65,27.83-26.65,27.83,2.44-7.1,4.18-21.93,4.39-23.83h0c3.6-6.06,6.37-12.65,8.17-19.64M228.6,261.67l-1.12,4.34c-1.71,6.62-4.34,12.96-7.84,18.84l-.42.71v.67c-.19,1.69-1.91,16.28-4.23,23.02l-3.14,9.13,7.76-5.74c.91-.68,22.45-16.71,27.63-29.08,2.55-6.08,2.94-11.02,1.16-14.67-1.21-2.48-3.01-3.43-3.36-3.6l-.61-.29h-2.61l-.81,1.77c-.24.53-.64,1.1-1.77,1.3-1.17,0-4.33-1.66-7.05-3.7l-3.59-2.69h0Z"/><path class="cls-17" d="M138.83,173.88c.72-3.99.66-7.54-.15-8.63-.81-1.09-1.8-1.62-3.05-1.62-.98,0-2.11.32-3.37.96l-1.76.89-.39-1.94c-.06-.29-1.34-7.17,5.99-11.55,2.02-1.21,5.14-2.13,9.25-2.74,4.93-.72,10.28-.83,13.02-.83,1.54,0,2.48.03,2.48.03,1.28.03,31.75.84,44.17,7.32l.09.05c.2.12,4.84,3.06,4.87,9.21v2.52s-2.21-1.19-2.21-1.19c-3.54-1.89-6.74-2.85-9.52-2.85-4.62,0-6.49,2.67-6.57,2.78l-.64.93-1.08-.34c-.97-.32-2.14-.52-3.5-.59-.1,0-.21,0-.32,0-4.39,0-15.88,3.83-25.15,7.41l-.26.1h-.28c-1.04-.06-2.04-.08-3.24-.08-5.61,0-11.19.63-16.59,1.87l-2.22.51.4-2.24Z"/><path class="cls-14" d="M158.38,149.93c1.51,0,2.43.03,2.43.03,0,0,31.27.76,43.53,7.15,0,0,4.13,2.55,4.16,7.94-4.23-2.26-7.6-3.03-10.23-3.03-5.58,0-7.82,3.45-7.82,3.45-1.06-.35-2.35-.58-3.89-.66-.13,0-.26-.01-.4-.01-5.96,0-22.3,6.2-25.69,7.51h-.01c-1.07-.06-2.14-.08-3.23-.08-5.82,0-11.49.66-16.93,1.91.27-1.5,1.23-7.57-.42-9.79-1-1.35-2.4-2.22-4.26-2.22-1.16,0-2.51.34-4.04,1.12,0,0-1.22-6.08,5.29-9.97,2.09-1.25,5.3-2.04,8.7-2.54,4.75-.69,9.88-.81,12.81-.81M158.38,146.93h0c-3.4,0-8.46.15-13.24.84-4.37.64-7.58,1.6-9.81,2.93-8.23,4.92-6.76,12.8-6.69,13.13l.78,3.87,3.52-1.79c1.03-.52,1.96-.8,2.69-.8.54,0,1.19.12,1.84,1.01.38.61.61,3.41-.12,7.47l-.81,4.47,4.43-1.02c5.3-1.22,10.77-1.83,16.26-1.83,1.17,0,2.15.02,3.06.08h.08s.08,0,.08,0h.56l.53-.2c8.73-3.37,20.42-7.31,24.61-7.31.08,0,.16,0,.24,0,1.23.06,2.27.24,3.11.51l2.3.76,1.14-1.95c.21-.27,1.76-2.11,5.32-2.11,2.53,0,5.5.9,8.82,2.67l4.44,2.37-.03-5.04c-.04-6.97-5.36-10.34-5.58-10.48l-.09-.06-.1-.05c-12.73-6.64-43.54-7.46-44.84-7.49-.01,0-.97-.03-2.51-.03h0Z"/><circle class="cls-5" cx="157.02" cy="249.25" r="23.75"/><path class="cls-5" d="M222.25,286.2s-.01.07-.03.19"/><path class="cls-5" d="M230.39,266.76l-.12-.09"/><path class="cls-5" d="M232.15,237.6c-.12-.18-.18-.28-.18-.28"/><circle class="cls-6" cx="156.17" cy="248.27" r="61.05"/><polygon class="cls-5" points="160.41 243.42 153.63 243.42 150.23 249.25 153.63 255.07 160.41 255.07 163.81 249.25 160.41 243.42"/><path class="cls-7" d="M95.43,315.5s-8.61,5.22-20.28-36.72c0,0-3.55-12.15-2.91-18.1l7.61,4.61s17.21,39.52,15.58,50.22Z"/><path class="cls-7" d="M149.69,338.51s-4.02,9.23-37.76-18.28c0,0-9.91-7.87-12.83-13.1l8.87-.63s36.87,22.34,41.71,32.01Z"/><path class="cls-7" d="M213.48,323.85s1.99,11.28-41.75,4.7c0,0-12.73-1.73-18.15-5.04l6.98-5.86s43.35-.26,52.92,6.2Z"/><path class="cls-7" d="M246.51,271.06s10.09,5.42-22.16,35.7c0,0-9.24,8.92-15.2,11.13l-.28-9.11s26.64-34.2,37.64-37.72Z"/><path class="cls-7" d="M130.93,161.15c-.04-.07-2.09-7.25,10-11.21,11.36-3.72,42.47-.34,54.84,3.06,2.56.7,3.84.91,6.07,2.33,1.78,1.14,5.45,6.04,5.36,8,0,0-12.14-6.7-20.46,2.11,0,0-34.58-.69-55.82-4.28Z"/><path class="cls-7" d="M192.5,169.05s-1.42-9.93,14.71-3.2c13.71,5.72,22.83,11.51,38.23,31.38,1.79,2.31,2.41,5.25,2.62,6.47.32,1.89-1.89,6.89-3.01,8.27,0,0-5-8.87-15.79-6.97,0,0-23.28-21.82-36.75-35.95Z"/><path class="cls-7" d="M234.63,210.56s4.35-2.49,11.73,5.86c4.29,4.85,8.84,17.46,4.85,41.68-.32,1.95-1.22,4.16-2.18,5.86-.76,1.34-1.93,2.6-3.43,2.71,0,0,1.68-8.94-6.19-14.33,0,0-4.45-25.71-4.78-41.78Z"/><path class="cls-7" d="M86.48,196.83s-11.75-5.66-1.53-14.59c9.81-8.57,18.27-17.15,39.7-30.59,2.07-1.3,4.32-2.22,6.69-2.82,2.16-.55,6.07-.53,7.91-.26,0,0-13.36,4.03-10.89,15.74,0,0-24.99,22.08-41.88,32.51Z"/><path class="cls-7" d="M66.65,256.06s-12.68,3.03,4.68-47.01c0,0,3.57-9.45,9.98-14.21l5.04,5.37s-10.49,47.11-19.7,55.85Z"/><path class="cls-18" d="M156.17,187.22c33.72,0,61.05,27.33,61.05,61.05s-27.33,61.05-61.05,61.05-61.05-27.34-61.05-61.05,27.34-61.05,61.05-61.05ZM180.77,249.25c0-13.12-10.64-23.75-23.75-23.75s-23.75,10.63-23.75,23.75,10.63,23.75,23.75,23.75,23.75-10.64,23.75-23.75Z"/><polygon class="cls-17" points="152.77 256.57 148.5 249.25 152.77 241.92 161.27 241.92 165.55 249.25 161.27 256.57 152.77 256.57"/><path class="cls-14" d="M160.41,243.42l3.4,5.83-3.4,5.82h-6.78l-3.4-5.82,3.4-5.83h6.78M162.14,240.42h-10.23l-.87,1.49-3.4,5.83-.88,1.51.88,1.51,3.4,5.82.87,1.49h10.22l.87-1.49,3.4-5.82.88-1.51-.88-1.51-3.4-5.83-.87-1.49h0Z"/><path class="cls-7" d="M157.02,225.5c13.11,0,23.75,10.63,23.75,23.75s-10.64,23.75-23.75,23.75-23.75-10.64-23.75-23.75,10.63-23.75,23.75-23.75ZM163.81,249.25l-3.4-5.83h-6.78l-3.4,5.83,3.4,5.82h6.78l3.4-5.82Z"/><path class="cls-13" d="M222.22,286.4c-.21,1.9-1.95,16.73-4.39,23.83-.36,1.03-.73,1.9-1.11,2.54-.74,1.25-1.5,2.24-2.25,3.01-2.48,2.52-4.96,2.62-7.09,1.46-2.78-1.51-4.62-9.11-4.62-9.11-6.89,5.21-14.71,9.27-23.17,11.89h0c-.23.21-3.81,3.27-8.16,6.65h-.01c-4.99,3.9-10.98,8.19-14.13,9.11-2.9.85-5.07.85-6.66.29h-.01c-1.68-.61-2.7-1.84-3.21-3.39-1-3,2.63-9.64,2.63-9.64-7.64-.72-14.95-2.58-21.75-5.4,0,0-9.85.29-18.01-.27h0c-3.9-.27-7.41-.73-9.27-1.51-1.78-.74-3.12-1.57-4.08-2.45-2.14-1.94-2.42-4.13-1.66-6.17,1.11-2.96,8.61-5.93,8.61-5.93-4.85-4.84-9.04-10.33-12.44-16.34,0,0,0-.01-.01-.01-2.06-1.6-13.06-10.19-18.06-15.86h0s-.01-.02-.02-.03c-.9-1.03-1.6-1.96-2.01-2.73-1.82-3.39-2.06-5.92-1.33-7.73.45-1.12,1.27-1.97,2.32-2.58,2.44-1.43,8.58.28,9.87.66-.34-2.91-.52-5.88-.52-8.88,0-6.19.74-12.2,2.15-17.96,0,0-3.58-21.55-2-27.59.49-1.9,1.14-3.36,1.89-4.43h0c1.63-2.35,3.72-2.92,5.84-2.45,3.09.68,6.85,7.59,6.85,7.59,4.68-6.35,10.35-11.95,16.76-16.55,1.4-2.28,11.59-18.68,16.38-21.95.72-.49,1.4-.9,2.05-1.22,4-2.03,6.68-1.09,8.3,1.1,1.65,2.22.69,8.29.42,9.79,5.44-1.25,11.11-1.91,16.93-1.91,1.09,0,2.16.02,3.23.08h0c3.47-1.34,20.5-7.8,26.09-7.5,1.54.08,2.83.31,3.89.66,3.25,1.04,4.44,3.16,4.4,5.54-.04,2.81-4.72,7.31-5.74,8.26,6.56,3.05,12.59,7.01,17.96,11.73h.01c.62.2,20.43,6.38,25.02,10.47,1.54,1.37,2.57,2.66,3.18,3.87,1.24,2.44.79,4.52-.56,6.15-2.01,2.44-9.74,2.79-9.74,2.79,3.59,7.19,6.06,15.04,7.17,23.32h0c1.46,2.34,11.38,18.39,12.16,24.11.37,2.77.12,4.82-.56,6.29-.81,1.8-2.27,2.72-3.99,3.02-2.86.5-8.49-3.6-9.37-4.26-1.8,6.99-4.57,13.58-8.17,19.63h0ZM217.22,248.27c0-33.72-27.33-61.05-61.05-61.05s-61.05,27.33-61.05,61.05,27.34,61.05,61.05,61.05,61.05-27.34,61.05-61.05Z"/><path class="cls-6" d="M197.73,183.99c-2.75-1.75-5.63-3.33-8.61-4.72,1.02-.95,5.7-5.45,5.74-8.26.04-2.38-1.15-4.5-4.4-5.54-1.06-.35-2.35-.58-3.89-.66-5.59-.3-22.62,6.16-26.1,7.5-1.07-.06-2.14-.08-3.23-.08-5.82,0-11.49.66-16.93,1.91.27-1.5,1.23-7.57-.42-9.79-1.62-2.19-4.3-3.13-8.3-1.1-.65.32-1.33.73-2.05,1.22-4.79,3.27-14.98,19.67-16.38,21.95-6.41,4.6-12.08,10.2-16.76,16.55,0,0-3.76-6.91-6.85-7.59-2.12-.47-4.21.1-5.84,2.45-.75,1.07-1.4,2.53-1.89,4.43-1.58,6.04,2,27.59,2,27.59-1.41,5.76-2.15,11.77-2.15,17.96,0,3,.18,5.97.52,8.88-1.29-.38-7.43-2.09-9.87-.66-1.05.61-1.87,1.46-2.32,2.58-.7,1.73-.51,4.11,1.09,7.27,1.98,4.76,17.82,17.13,20.34,19.09,3.4,6.01,7.59,11.5,12.44,16.34,0,0-7.5,2.97-8.61,5.93-.76,2.04-.48,4.23,1.66,6.17.93.85,2.22,1.66,3.93,2.39,5.54,2.49,27.44,1.84,27.44,1.84,6.8,2.82,14.11,4.68,21.75,5.4,0,0-3.63,6.64-2.63,9.64.51,1.55,1.53,2.78,3.22,3.39,1.59.56,3.76.56,6.66-.29,3.15-.92,9.14-5.21,14.14-9.11,4.35-3.38,7.93-6.44,8.17-6.65,8.46-2.62,16.28-6.68,23.17-11.89,0,0,1.84,7.6,4.62,9.11,2.13,1.16,4.61,1.06,7.09-1.46.75-.77,1.51-1.76,2.25-3.01.38-.64.75-1.51,1.11-2.54,2.44-7.1,4.18-21.93,4.39-23.84,3.6-6.05,6.37-12.64,8.17-19.63.88.66,6.51,4.76,9.37,4.26,1.72-.3,3.18-1.22,3.99-3.02.68-1.47.93-3.52.56-6.29-.78-5.72-10.7-21.77-12.16-24.11-1.11-8.28-3.58-16.13-7.17-23.32,0,0,7.73-.35,9.74-2.79,1.35-1.63,1.8-3.71.56-6.15-.61-1.21-1.64-2.5-3.18-3.87-4.59-4.09-24.4-10.27-25.03-10.47-2.93-2.57-6.05-4.92-9.35-7.01Z"/><path class="cls-1" d="M85.36,187.75c.21-.06,15.65-15.77,32.85-27.21"/><path class="cls-1" d="M138.07,156.07s9.49-6.14,43.74-1.71"/><path class="cls-1" d="M201.94,168.3s20.74,7.05,35.57,25.72"/><path class="cls-1" d="M243.69,219.78s6.02,9.79,4.15,26.98"/><path class="cls-1" d="M242.31,279.47s-4.26,8.09-14.54,18.05"/><path class="cls-1" d="M207.9,324.83s-7.21,2.11-17.68,1.34"/><path class="cls-1" d="M141.71,335.1s-7.82-3.23-17.1-10.13"/><path class="cls-1" d="M90.44,305.94s-6.21-10.72-9.45-22.3"/><path class="cls-1" d="M66.24,249.85s0-16.25,9.51-40.78"/><path class="cls-4" d="M87.75,198.29s-6.91,1.72-1.4,29.81"/><path class="cls-4" d="M73.07,259.35s-4.91,5.89,19.18,22.55"/><path class="cls-4" d="M97.9,309.52s-.2,7.67,29.04,5.78"/><path class="cls-4" d="M150.37,332.27s3.65,7.08,26.35-13.5"/><path class="cls-4" d="M208.61,314.78s7.92,4.83,10.47-27.7"/><path class="cls-4" d="M239.09,268.42s9.2-1.16-9.07-28.18"/><path class="cls-4" d="M232.4,209.85s6.27-6.83-25.15-15.63"/><path class="cls-4" d="M191.8,170.67s.55-8.89-29.36,4.13"/><path class="cls-4" d="M136.44,165.25s-6.49-2.94-19.6,22.51"/><path class="cls-17" d="M542.25,259.39c-.3-.75-.87-1.37-1.68-1.84-.23-.14-.8-.36-2.05-.36-2.51,0-5.72.89-6.65,1.16l-2.18.64.26-2.25c.34-2.9.51-5.83.51-8.71,0-5.97-.71-11.89-2.11-17.6l-.07-.3.05-.3c.98-5.91,3.26-22.27,2.03-26.97-.43-1.65-.99-2.98-1.67-3.95l-.27-.39v-1.06l.39-.44s1.27-1.42,1.98-3.5l.82-2.39,1.71,1.87c.88.96,1.73,2.02,2.53,3.16.19.26.4.56.6.85.4.6.78,1.2,1.15,1.82.19.3.38.62.57.96.21.32.43.73.66,1.15.31.56.62,1.15.92,1.75.53,1.04,1.03,2.09,1.5,3.13l.47,1.07c.72,1.65,1.42,3.41,2.14,5.39,0,0,.14.37.17.48.22.61.44,1.26.67,1.92.25.73.5,1.48.75,2.23l.08.24h0c.22.7.43,1.39.64,2.09.45,1.48.89,3,1.3,4.53.15.57.3,1.13.45,1.69l.14.53c.08.31.16.61.23.91.04.14.08.28.11.43l.06.25c.1.4.2.8.29,1.19.28,1.17.55,2.33.8,3.45.07.31.14.64.21.96.33,1.48.63,2.97.9,4.4l.16.83c.15.81.29,1.59.42,2.32.08.51.16.97.24,1.43.31,1.92.57,3.68.73,4.98.03.23.05.44.07.64.04.32.05.63.05.96,0,.24,0,.49-.03.72v.28l-.04.08c-.01.11-.03.21-.04.32v.23l-.07.15c-1.06,5.41-6.61,8.94-7.72,9.6l-1.5.89-.67-1.62Z"/><path class="cls-14" d="M532.22,194.02c.83.91,1.64,1.92,2.41,3.01.2.27.39.55.58.83.38.57.75,1.15,1.11,1.75.19.3.37.6.54.91.23.37.44.75.65,1.14.31.56.61,1.13.9,1.71.51,1,1,2.02,1.47,3.07.15.35.31.7.46,1.05.75,1.72,1.45,3.5,2.11,5.31.05.14.11.29.16.44.23.64.45,1.28.67,1.93.25.73.5,1.47.74,2.21,0,.01.01.03.01.04.24.75.47,1.5.7,2.26.46,1.51.89,3.01,1.29,4.49.2.74.39,1.48.58,2.21.08.31.16.62.23.92.04.13.07.25.1.38.12.49.24.97.35,1.44.28,1.17.55,2.31.79,3.42.07.31.14.62.2.93.34,1.54.64,3.01.9,4.39.05.28.11.55.16.82.15.81.29,1.58.42,2.31.08.49.16.96.24,1.42.34,2.07.58,3.75.72,4.9.03.23.05.43.07.62.03.27.04.53.04.8,0,.22-.01.44-.03.65,0,.01,0,.03-.01.05-.01.2-.04.39-.07.58,0,.02,0,.04-.01.06-.92,5.19-6.86,8.64-7.06,8.76-.45-1.12-1.27-1.97-2.32-2.58-.7-.41-1.7-.56-2.8-.56-2.75,0-6.15.95-7.07,1.22.34-2.91.52-5.88.52-8.88,0-6.19-.74-12.2-2.15-17.96,0,0,3.58-21.55,2-27.59-.49-1.9-1.14-3.36-1.89-4.43h0s1.46-1.61,2.29-4.03M531.02,188.25l-1.64,4.79c-.6,1.76-1.67,2.97-1.68,2.99l-.76.85v1.16s-.01.95-.01.95l.54.79c.57.81,1.07,2.01,1.44,3.46,1.04,3.96-.71,18.26-2.05,26.35l-.1.61.15.6c1.37,5.59,2.06,11.4,2.06,17.25,0,2.82-.17,5.69-.5,8.53l-.53,4.51,4.35-1.28c1.8-.53,4.38-1.1,6.22-1.1.96,0,1.29.16,1.3.16.52.3.86.67,1.04,1.1l1.31,3.26,3.02-1.81c1.22-.72,7.29-4.6,8.45-10.67.03-.12.05-.24.06-.36.02-.15.05-.34.07-.54.01-.08.02-.15.02-.23.02-.28.04-.57.04-.86,0-.41-.02-.77-.06-1.13v-.06c-.03-.19-.05-.39-.08-.62-.16-1.3-.42-3.08-.73-5-.08-.48-.16-.94-.24-1.42-.14-.78-.28-1.56-.43-2.37-.03-.14-.05-.28-.08-.42-.03-.13-.05-.25-.07-.38-.28-1.47-.58-2.96-.92-4.47-.06-.33-.14-.65-.21-.98-.25-1.14-.53-2.33-.8-3.46-.08-.35-.17-.72-.27-1.1l-.09-.36c-.03-.13-.07-.28-.11-.44-.07-.29-.15-.59-.23-.9l-.11-.44c-.15-.6-.31-1.2-.47-1.8-.41-1.53-.86-3.07-1.32-4.58-.19-.62-.38-1.24-.57-1.85v-.02l-.06-.17-.1-.3c-.24-.76-.5-1.51-.76-2.26-.22-.65-.44-1.3-.67-1.94-.04-.11-.08-.23-.12-.34l-.05-.12c-.73-2.01-1.45-3.8-2.19-5.5-.07-.17-.16-.36-.24-.54-.07-.16-.14-.33-.21-.49-.5-1.11-1.01-2.19-1.55-3.25-.3-.59-.62-1.2-.95-1.8-.18-.34-.42-.77-.68-1.2-.17-.31-.36-.63-.58-.97-.36-.6-.74-1.2-1.17-1.84-.22-.32-.43-.63-.64-.92-.83-1.17-1.71-2.28-2.62-3.27l-3.41-3.74h0Z"/><line class="cls-2" x1="362.83" y1="253.71" x2="362.84" y2="253.71"/><path class="cls-17" d="M516.03,204.08c-4.6-6.24-10.13-11.7-16.43-16.22l-.25-.18-.16-.26c-4.17-6.79-12.22-18.95-15.95-21.5-.7-.47-1.31-.84-1.87-1.11l-1.03-.51.23-1.13c.04-.2.88-5.12-4.59-8.39-1.69-1.01-4.43-1.8-8.15-2.34l-3.2-.47,2.43-2.14c2.73-2.4,5.96-2.76,7.63-2.76.48,0,.83.03,1.01.05h.05c.57,0,1.18.06,1.82.16.2.02.4.06.61.1.46.09.89.19,1.33.31.82.22,1.76.53,2.87.94l.24.09c.3.12.6.24.92.37.5.21,1.04.44,1.6.7.24.11.5.23.76.36,4.7,2.21,10.42,5.63,16.99,10.16.6.41,1.21.83,1.81,1.26,1.86,1.31,3.72,2.66,5.54,4.02.9.67,1.8,1.35,2.67,2.01,2.07,1.58,4.15,3.22,6.21,4.88l.9.74,1.92,1.59c.43.36.85.72,1.26,1.07.51.43,1,.85,1.48,1.27.33.28.65.57.96.84l.09.08c1.19,1.05,2.08,1.87,2.83,2.58.31.29.61.58.89.86,1.08,1.06,1.86,1.89,2.37,2.54,1.62,2.06,2.44,4.32,2.44,6.72,0,.27-.01.55-.04.81-.07.96-.28,1.96-.62,2.93-.92,2.68-2.53,4.47-2.6,4.54l-1.27,1.39-1.07-1.54c-.91-1.31-1.99-1.95-3.28-1.95-.32,0-.66.04-1.01.12-1.65.36-4.47,4.3-5.86,6.84l-1.13,2.07-1.4-1.9Z"/><path class="cls-14" d="M474.7,148.57c.58,0,.93.05.93.05.04,0,.09,0,.13,0,.49,0,1.03.05,1.61.15.19.02.39.06.6.1.37.07.76.16,1.16.27.86.23,1.78.54,2.75.9.35.14.71.28,1.08.44.51.21,1.03.43,1.57.68.24.11.49.23.74.35,5.03,2.37,10.92,6,16.79,10.04.6.41,1.2.83,1.8,1.25,1.86,1.31,3.71,2.65,5.51,3.99.9.67,1.79,1.34,2.66,2,2.16,1.65,4.24,3.29,6.17,4.85.31.25.61.5.91.74.65.54,1.28,1.06,1.89,1.57.43.36.84.71,1.25,1.06.51.43,1,.85,1.47,1.26.36.31.71.62,1.05.92,1.03.91,1.97,1.76,2.78,2.54.31.29.6.57.87.84,1,.98,1.77,1.8,2.25,2.41,1.57,2,2.12,3.99,2.12,5.79,0,.23-.01.46-.03.68-.07.93-.27,1.79-.54,2.57-.83,2.42-2.29,4.02-2.29,4.02-1.29-1.85-2.86-2.59-4.51-2.59-.44,0-.88.05-1.33.15-3.09.68-6.85,7.59-6.85,7.59-4.68-6.35-10.35-11.95-16.76-16.55-1.4-2.28-11.59-18.68-16.38-21.95-.72-.49-1.4-.9-2.05-1.22,0,0,1.22-6.08-5.29-9.97-2.09-1.25-5.3-2.04-8.7-2.54,2.37-2.09,5.21-2.39,6.64-2.39M474.7,145.57c-1.89,0-5.52.41-8.63,3.14l-4.86,4.28,6.41.94c4.39.65,6.56,1.52,7.6,2.15,4.44,2.65,3.95,6.43,3.88,6.85l-.54,2.32,2.17.92c.5.25,1.05.57,1.69,1.01,3.07,2.09,10.19,12.37,15.51,21.04l.32.52.49.35c6.17,4.43,11.59,9.78,16.09,15.89l2.8,3.8,2.25-4.14c1.54-2.82,3.91-5.78,4.88-6.1.22-.05.45-.08.66-.08.53,0,1.24.15,2.05,1.31l2.15,3.08,2.53-2.77c.19-.21,1.91-2.14,2.91-5.07.38-1.08.61-2.2.69-3.32.02-.26.04-.58.04-.91,0-2.74-.93-5.31-2.76-7.64-.56-.71-1.38-1.59-2.51-2.7-.27-.27-.59-.57-.92-.89-.72-.7-1.64-1.53-2.84-2.6l-.11-.1c-.31-.28-.64-.56-.97-.85-.47-.41-.97-.84-1.49-1.28l-.04-.03c-.4-.34-.8-.68-1.22-1.03-.4-.34-.82-.68-1.24-1.03l-.66-.55-.02-.02-.02-.02c-.16-.12-.31-.25-.47-.38l-.43-.35c-2.06-1.66-4.16-3.31-6.23-4.9-.89-.67-1.78-1.35-2.69-2.02-1.83-1.36-3.71-2.72-5.57-4.04-.62-.43-1.23-.86-1.83-1.27-6.63-4.57-12.42-8.02-17.2-10.28-.27-.13-.52-.25-.77-.36-.61-.28-1.2-.53-1.65-.72-.31-.13-.62-.26-.92-.38l-.21-.08h-.04s-.04-.03-.04-.03c-1.16-.43-2.14-.75-3.02-.99-.45-.12-.92-.23-1.38-.32h-.05c-.2-.05-.43-.09-.68-.12-.71-.12-1.38-.18-2.02-.18-.24-.02-.61-.05-1.08-.05h0Z"/><path class="cls-17" d="M518.88,315.67c-.96,0-1.92-.24-2.84-.7l-1.95-.98,1.62-1.46c1.48-1.35,1.9-2.83,1.26-4.54-.6-1.59-4.98-3.96-7.76-5.06l-2.13-.84,1.62-1.61c4.68-4.67,8.72-9.95,12-15.68v-1.1h.99c3.42-2.68,12.98-10.28,17.45-15.36l3.84-4.36-1.25,5.67c-1.7,7.69-10.78,46.03-22.86,46.03h0Z"/><path class="cls-14" d="M540.28,269.32c-.3,1.36-10.06,44.85-21.4,44.85-.71,0-1.44-.17-2.16-.54,2.14-1.94,2.42-4.13,1.66-6.17-1.11-2.96-8.61-5.93-8.61-5.93,4.85-4.84,9.04-10.33,12.44-16.34,0,0,0-.01.01-.01,2.06-1.6,13.06-10.19,18.06-15.86M545.71,258.62l-7.68,8.71c-4.23,4.8-13.15,11.95-16.84,14.84h-1.97v2.21c-3.19,5.48-7.07,10.53-11.57,15.02l-3.24,3.23,4.25,1.68c3.09,1.23,6.46,3.28,6.92,4.22.29.79.4,1.71-.88,2.87l-3.23,2.93,3.89,1.97c1.13.57,2.31.86,3.52.86,6.3,0,11.91-7.6,17.67-23.92,4.02-11.39,6.56-22.81,6.66-23.29l2.5-11.34h0Z"/><path class="cls-17" d="M468.96,340.27c-2.95,0-5.33-1.01-7.08-2.99l-2.2-2.49h3.05c1.01-.44,1.69-1.21,2.07-2.36.55-1.64-1.15-5.93-2.52-8.45l-1.09-2,2.27-.21c7.35-.69,14.52-2.47,21.32-5.29l.3-.12h.32s2.57.08,6.08.08c4.45,0,8.53-.12,11.78-.34l4.09-.28-2.94,2.85c-2.28,2.21-22.62,21.6-35.44,21.6Z"/><path class="cls-14" d="M503.36,317.59c-.59.57-21.88,21.18-34.39,21.18-2.36,0-4.42-.74-5.96-2.48h.01c1.68-.61,2.7-1.84,3.21-3.39,1-3-2.63-9.64-2.63-9.64,7.64-.72,14.95-2.58,21.75-5.4,0,0,2.55.08,6.13.08s7.87-.07,11.88-.35M511.32,314.03l-8.17.56c-3.22.22-7.26.34-11.68.34-3.49,0-6.02-.07-6.04-.07l-.64-.02-.59.25c-6.66,2.76-13.69,4.51-20.88,5.18l-4.54.43,2.19,4c1.5,2.76,2.68,6.29,2.41,7.26-.21.64-.52,1.06-.99,1.33h-6.02l4.39,4.99c2.02,2.29,4.85,3.49,8.2,3.49,13.42,0,34.16-19.77,36.49-22.03l5.87-5.71h0Z"/><path class="cls-17" d="M419.26,331.19c-9.46,0-15.94-1.95-19.24-5.8-2.15-2.5-2.93-5.74-2.34-9.62l.45-2.96,2.1,2.13c1.13,1.15,2.27,1.73,3.39,1.73.62,0,1.27-.18,1.92-.53,1.51-.82,3.18-5.26,3.88-8.15l.54-2.22,1.82,1.38c6.87,5.19,14.51,9.11,22.71,11.65l.32.1.25.22s3.63,3.12,8.08,6.57l2.46,1.91-3.03.73c-.12.03-11.92,2.85-23.3,2.85Z"/><path class="cls-14" d="M410.87,308.35c6.89,5.21,14.71,9.27,23.17,11.89h.01c.23.21,3.81,3.27,8.16,6.65-.43.1-11.92,2.81-22.95,2.81s-21.77-2.75-20.1-13.7c1.51,1.54,3.02,2.17,4.46,2.17.92,0,1.8-.26,2.63-.71,2.78-1.51,4.62-9.11,4.62-9.11M409.03,303.19l-1.08,4.44c-.76,3.13-2.3,6.63-3.15,7.19-.41.22-.81.34-1.19.34-.7,0-1.48-.43-2.32-1.28l-4.2-4.27-.9,5.92c-.66,4.33.24,7.98,2.69,10.82,3.6,4.2,10.46,6.33,20.38,6.33,11.55,0,23.53-2.86,23.65-2.89l6.06-1.46-4.92-3.82c-4.07-3.16-7.43-6.02-7.96-6.47l-.44-.44-.72-.23c-8.03-2.49-15.52-6.33-22.25-11.42l-3.65-2.76h0Z"/><path class="cls-17" d="M366.62,271.17c-.12-.21-3.09-5.4-5.26-17.19-2.32-12.55-.51-29.04,4.41-40.09.54-1.22,1.12-2.34,1.73-3.34,3.54-5.8,7.49-6.66,9.54-6.66,1.02,0,1.68.21,1.8.25l1.63.56-.78,1.54c-.86,1.69-.74,3.17.38,4.51,1.08,1.32,5.8,2.12,8.65,2.25l2.31.1-1.03,2.06c-3.58,7.17-5.94,14.82-7.01,22.75v.33l-.23.38c-4.15,6.62-11.33,19.02-11.95,23.51-.31,2.32-.16,4.16.43,5.46l.98,2.13h-1.92c-.25.2-.68.62-1.04,1.36l-1.23,2.52-1.41-2.43Z"/><path class="cls-14" d="M377.04,205.39c.82,0,1.31.17,1.31.17-1.24,2.44-.79,4.52.56,6.15,2.01,2.44,9.74,2.79,9.74,2.79-3.59,7.19-6.06,15.04-7.17,23.32h0c-1.46,2.34-11.38,18.39-12.16,24.11-.37,2.77-.12,4.82.56,6.29h-.01s-1.14.54-1.95,2.2c0,0-2.93-5.04-5.08-16.71-2.16-11.68-.64-28.1,4.3-39.21.53-1.2,1.08-2.25,1.64-3.16,3.14-5.14,6.47-5.95,8.26-5.95M377.04,202.39c-2.36,0-6.89.96-10.82,7.39-.64,1.04-1.26,2.22-1.82,3.51-5.02,11.3-6.88,28.15-4.51,40.97,2.22,12.04,5.31,17.45,5.44,17.67l2.83,4.86,2.46-5.05c.11-.22.22-.39.32-.52h3.63l-1.96-4.26c-.33-.71-.65-2.09-.31-4.63.48-3.51,6.26-14.18,11.73-22.9l.46-.73v-.67c1.06-7.73,3.36-15.19,6.85-22.18l2.06-4.13-4.61-.21c-3.18-.15-6.86-.98-7.57-1.71-.53-.64-.92-1.43-.19-2.87l1.56-3.07-3.26-1.12c-.23-.08-1.06-.33-2.29-.33h0Z"/><path class="cls-17" d="M367.56,212.21c-.17-.23-4.05-5.72-1.58-11.5,2.36-5.51,15.33-20.45,32.6-33.04,2.02-1.47,3.98-2.72,5.85-3.72,3.98-2.13,7.66-3.21,10.94-3.21,6.32,0,8.97,3.96,9.08,4.13l1.07,1.65-1.87.6c-2.29.73-3.39,2.07-3.36,4.09.02,1.37,2.18,4.32,5.26,7.19l1.63,1.52-2.02.94c-6.37,2.96-12.29,6.83-17.6,11.5l-.24.21-.32.1c-5.17,1.58-20.76,6.85-24.46,10.15-1.34,1.19-2.29,2.34-2.84,3.42l-.59,1.17-1.24-.43s-.32-.09-.82-.09c-1.41,0-4.2.68-6.98,5.23l-1.18,1.93-1.32-1.83Z"/><path class="cls-14" d="M415.36,162.24c5.57,0,7.82,3.45,7.82,3.45-3.25,1.04-4.44,3.16-4.4,5.54.04,2.81,4.72,7.31,5.74,8.26-6.56,3.05-12.59,7.01-17.96,11.73h0c-.62.2-20.43,6.38-25.02,10.47-1.54,1.37-2.57,2.66-3.18,3.87,0,0-.49-.17-1.31-.17-1.79,0-5.12.81-8.26,5.95,0,0-3.58-4.97-1.42-10.04,2.17-5.06,14.61-19.66,32.1-32.42,2.04-1.49,3.93-2.68,5.67-3.61,4.23-2.26,7.6-3.03,10.23-3.03M415.36,159.24c-3.53,0-7.45,1.14-11.65,3.38-1.92,1.03-3.95,2.32-6.03,3.83-17.71,12.92-30.6,27.85-33.09,33.66-2.79,6.56,1.56,12.72,1.74,12.98l2.64,3.67,2.35-3.86c2.49-4.07,4.81-4.51,5.7-4.51.18,0,.32.02.39.03l2.55,1.12,1.05-2.63c.46-.91,1.3-1.92,2.5-2.98,3.21-2.86,17.76-7.95,23.9-9.83l.72-.22.47-.47c5.18-4.54,10.96-8.31,17.17-11.19l4.04-1.88-3.26-3.04c-3.14-2.93-4.71-5.39-4.79-6.13-.02-.97.25-1.96,2.32-2.62l3.74-1.2-2.14-3.3c-1.16-1.79-4.65-4.81-10.33-4.81h0Z"/><path class="cls-17" d="M394.91,311.65c-.9-.67-22.12-16.46-27.14-28.46-2.38-5.67-2.78-10.19-1.2-13.44,1.01-2.07,2.49-2.82,2.66-2.9l.3-.14h1.31l.41.88c.54,1.21,1.49,1.91,2.88,2.16.08.01.17.02.26.02,1.8,0,5.38-2.07,7.95-4l1.79-1.35.56,2.17c1.74,6.76,4.44,13.23,8.01,19.24l.21.35v.34c.14,1.25,1.89,16.4,4.31,23.43l1.57,4.56-3.88-2.87Z"/><path class="cls-14" d="M383.24,266.98c1.8,6.99,4.57,13.58,8.17,19.63h0c.21,1.91,1.95,16.74,4.39,23.84,0,0-21.73-16.08-26.65-27.83-2.71-6.46-2.22-10.17-1.23-12.2.81-1.66,1.95-2.2,1.95-2.2h.01c.81,1.8,2.27,2.72,3.99,3.02.16.03.34.04.52.04,2.97,0,8.02-3.68,8.85-4.3M385.03,261.89l-3.59,2.69c-2.72,2.04-5.89,3.7-7.05,3.7-1.14-.2-1.53-.76-1.77-1.29l-.8-1.77h-2.61l-.62.29c-.35.17-2.15,1.12-3.36,3.6-1.78,3.66-1.39,8.59,1.16,14.68,5.18,12.37,26.72,28.4,27.63,29.08l7.76,5.74-3.14-9.13c-2.32-6.75-4.03-21.33-4.23-23.02v-.66l-.42-.72c-3.5-5.88-6.14-12.22-7.84-18.84l-1.12-4.34h0Z"/><path class="cls-17" d="M472.99,175.82c-5.41-1.24-10.99-1.87-16.59-1.87-1.2,0-2.2.02-3.15.08l-.32.02-.31-.12c-9.27-3.58-20.75-7.41-25.15-7.41-.11,0-.22,0-.32,0-1.36.07-2.53.27-3.5.59l-1.1.36-.63-.97c-.07-.1-1.94-2.77-6.56-2.77-2.78,0-5.99.96-9.53,2.85l-2.22,1.19v-2.52c.05-6.15,4.69-9.09,4.89-9.21l.09-.05c12.43-6.48,42.89-7.29,44.19-7.32,0,0,.95-.03,2.47-.03,2.75,0,8.09.11,13.02.83,4.12.61,7.23,1.53,9.25,2.74,7.33,4.38,6.05,11.26,5.99,11.55l-.39,1.94-1.76-.89c-1.25-.64-2.39-.96-3.37-.96-1.25,0-2.25.53-3.05,1.61-.81,1.09-.87,4.64-.15,8.63l.4,2.24-2.21-.51Z"/><path class="cls-14" d="M455.25,150.15c2.93,0,8.05.12,12.81.81,3.4.5,6.61,1.29,8.7,2.54,6.51,3.89,5.29,9.97,5.29,9.97-1.54-.78-2.88-1.12-4.04-1.12-1.86,0-3.26.87-4.26,2.22-1.65,2.22-.69,8.29-.42,9.79-5.44-1.25-11.11-1.91-16.93-1.91-1.09,0-2.16.02-3.23.08h-.01c-3.39-1.31-19.74-7.51-25.69-7.51-.14,0-.27,0-.4.01-1.54.08-2.83.31-3.89.66,0,0-2.24-3.45-7.82-3.45-2.63,0-6,.77-10.23,3.03.03-5.39,4.16-7.94,4.16-7.94,12.26-6.39,43.53-7.15,43.53-7.15,0,0,.93-.03,2.43-.03M455.25,147.15c-1.54,0-2.5.03-2.54.03-1.28.03-32.08.85-44.82,7.49l-.1.05-.09.06c-.23.14-5.55,3.5-5.58,10.48l-.03,5.04,4.44-2.37c3.32-1.77,6.29-2.67,8.82-2.67,3.56,0,5.11,1.84,5.32,2.11l1.21,2.07,2.23-.88c.84-.28,1.88-.45,3.1-.51.08,0,.16,0,.24,0,4.2,0,15.88,3.94,24.61,7.31l.52.2h.74c.92-.06,1.89-.08,3.06-.08,5.49,0,10.96.62,16.26,1.83l4.43,1.02-.81-4.47c-.73-4.06-.5-6.87-.12-7.48.65-.88,1.3-1,1.84-1,.73,0,1.66.28,2.69.8l3.52,1.79.78-3.87c.07-.33,1.54-8.21-6.69-13.14-2.22-1.33-5.43-2.29-9.8-2.93-4.78-.7-9.84-.84-13.24-.84h0Z"/><circle class="cls-5" cx="456.61" cy="249.47" r="23.75"/><path class="cls-5" d="M391.38,286.42s.01.07.03.19"/><path class="cls-5" d="M383.24,266.98l.12-.09"/><path class="cls-5" d="M381.48,237.82c.12-.18.18-.28.18-.28"/><circle class="cls-6" cx="457.46" cy="248.49" r="61.05"/><polygon class="cls-5" points="453.22 243.64 460 243.64 463.4 249.47 460 255.29 453.22 255.29 449.82 249.47 453.22 243.64"/><path class="cls-7" d="M518.2,315.71s8.61,5.22,20.28-36.72c0,0,3.55-12.15,2.91-18.1l-7.61,4.61s-17.21,39.52-15.58,50.22Z"/><path class="cls-7" d="M463.94,338.72s4.02,9.23,37.76-18.28c0,0,9.91-7.87,12.83-13.1l-8.87-.63s-36.87,22.34-41.71,32.01Z"/><path class="cls-7" d="M400.15,324.06s-1.99,11.28,41.75,4.7c0,0,12.73-1.73,18.15-5.04l-6.98-5.86s-43.35-.26-52.92,6.2Z"/><path class="cls-7" d="M367.12,271.27s-10.09,5.42,22.16,35.7c0,0,9.24,8.92,15.2,11.13l.28-9.11s-26.64-34.2-37.64-37.72Z"/><path class="cls-7" d="M482.7,161.36c.04-.07,2.09-7.25-10-11.21-11.36-3.72-42.47-.34-54.84,3.06-2.56.7-3.84.91-6.07,2.33-1.78,1.14-5.45,6.04-5.36,8,0,0,12.14-6.7,20.46,2.11,0,0,34.58-.69,55.82-4.28Z"/><path class="cls-7" d="M421.13,169.27s1.42-9.93-14.71-3.2c-13.71,5.72-22.83,11.51-38.23,31.38-1.79,2.31-2.41,5.25-2.62,6.47-.32,1.89,1.89,6.89,3.01,8.27,0,0,5-8.87,15.79-6.97,0,0,23.28-21.82,36.75-35.95Z"/><path class="cls-7" d="M379,210.78s-4.35-2.49-11.73,5.86c-4.29,4.85-8.84,17.46-4.85,41.68.32,1.95,1.22,4.16,2.18,5.86.76,1.34,1.93,2.6,3.43,2.71,0,0-1.68-8.94,6.19-14.33,0,0,4.45-25.71,4.78-41.78Z"/><path class="cls-7" d="M527.15,197.04s11.75-5.66,1.53-14.59c-9.81-8.57-18.27-17.15-39.7-30.59-2.07-1.3-4.32-2.22-6.69-2.82-2.16-.55-6.07-.53-7.91-.26,0,0,13.36,4.03,10.89,15.74,0,0,24.99,22.08,41.88,32.51Z"/><path class="cls-7" d="M546.98,256.27s12.68,3.03-4.68-47.01c0,0-3.57-9.45-9.98-14.21l-5.04,5.37s10.49,47.11,19.7,55.85Z"/><path class="cls-18" d="M518.51,248.49c0,33.71-27.34,61.05-61.05,61.05-33.72,0-61.05-27.34-61.05-61.05,0-33.72,27.33-61.05,61.05-61.05,33.71,0,61.05,27.33,61.05,61.05ZM456.61,273.22c13.12,0,23.75-10.64,23.75-23.75,0-13.12-10.63-23.75-23.75-23.75s-23.75,10.63-23.75,23.75c0,13.11,10.64,23.75,23.75,23.75Z"/><polygon class="cls-17" points="452.36 256.79 448.08 249.47 452.36 242.14 460.86 242.14 465.14 249.47 460.86 256.79 452.36 256.79"/><path class="cls-14" d="M460,243.64l3.4,5.83-3.4,5.82h-6.78l-3.4-5.82,3.4-5.83h6.78M461.72,240.64h-10.23l-.87,1.49-3.4,5.83-.88,1.51.88,1.51,3.4,5.82.87,1.49h10.22l.87-1.49,3.4-5.82.88-1.51-.88-1.51-3.4-5.83-.87-1.49h0Z"/><path class="cls-7" d="M480.36,249.47c0,13.11-10.63,23.75-23.75,23.75s-23.75-10.64-23.75-23.75c0-13.12,10.64-23.75,23.75-23.75s23.75,10.63,23.75,23.75ZM453.22,255.29h6.78s3.4-5.82,3.4-5.82l-3.4-5.83h-6.78s-3.4,5.83-3.4,5.83l3.4,5.82Z"/><path class="cls-13" d="M391.41,286.61c-3.6-6.05-6.37-12.64-8.17-19.63-.88.66-6.51,4.76-9.37,4.26-1.72-.3-3.18-1.22-3.99-3.02-.68-1.47-.93-3.52-.56-6.29.78-5.72,10.7-21.77,12.16-24.1h0c1.11-8.29,3.58-16.14,7.17-23.33,0,0-7.73-.35-9.74-2.79-1.35-1.63-1.8-3.71-.56-6.15.61-1.21,1.64-2.5,3.18-3.87,4.59-4.09,24.4-10.27,25.02-10.46h.01c5.37-4.73,11.4-8.69,17.96-11.74-1.02-.95-5.7-5.45-5.74-8.26-.04-2.38,1.15-4.5,4.4-5.54,1.06-.35,2.35-.58,3.89-.66,5.59-.3,22.62,6.16,26.09,7.5h0c1.07-.06,2.14-.08,3.23-.08,5.82,0,11.49.66,16.93,1.91-.27-1.5-1.23-7.57.42-9.79,1.62-2.19,4.3-3.13,8.3-1.1.65.32,1.33.73,2.05,1.22,4.79,3.27,14.98,19.67,16.38,21.95,6.41,4.6,12.08,10.2,16.76,16.55,0,0,3.76-6.91,6.85-7.59,2.12-.47,4.21.1,5.84,2.44h0c.75,1.08,1.4,2.54,1.89,4.44,1.58,6.04-2,27.59-2,27.59,1.41,5.76,2.15,11.77,2.15,17.96,0,3-.18,5.97-.52,8.88,1.29-.38,7.43-2.09,9.87-.66,1.05.61,1.87,1.46,2.32,2.58.73,1.81.49,4.34-1.33,7.73-.41.77-1.11,1.7-2.01,2.73l-.02.02h0c-5,5.68-16,14.27-18.06,15.87-.01,0-.01.01-.01.01-3.4,6.01-7.59,11.5-12.44,16.34,0,0,7.5,2.97,8.61,5.93.76,2.04.48,4.23-1.66,6.17-.96.88-2.3,1.71-4.08,2.45-1.86.78-5.37,1.24-9.27,1.51h-.01c-8.16.56-18.01.27-18.01.27-6.8,2.82-14.11,4.68-21.75,5.4,0,0,3.63,6.64,2.63,9.64-.51,1.55-1.53,2.78-3.21,3.39h-.01c-1.59.56-3.76.56-6.66-.29-3.15-.92-9.14-5.21-14.13-9.11h-.01c-4.35-3.38-7.93-6.44-8.16-6.64h-.01c-8.46-2.63-16.28-6.69-23.17-11.9,0,0-1.84,7.6-4.62,9.11-2.13,1.16-4.61,1.06-7.09-1.46-.75-.77-1.51-1.76-2.25-3.01-.38-.64-.75-1.51-1.11-2.54-2.44-7.1-4.18-21.93-4.39-23.83h0ZM457.46,309.54c33.71,0,61.05-27.34,61.05-61.05,0-33.72-27.34-61.05-61.05-61.05-33.72,0-61.05,27.33-61.05,61.05,0,33.71,27.33,61.05,61.05,61.05Z"/><path class="cls-6" d="M415.9,184.2c2.75-1.75,5.63-3.33,8.61-4.72-1.02-.95-5.7-5.45-5.74-8.26-.04-2.38,1.15-4.5,4.4-5.54,1.06-.35,2.35-.58,3.89-.66,5.59-.3,22.62,6.16,26.1,7.5,1.07-.06,2.14-.08,3.23-.08,5.82,0,11.49.66,16.93,1.91-.27-1.5-1.23-7.57.42-9.79,1.62-2.19,4.3-3.13,8.3-1.1.65.32,1.33.73,2.05,1.22,4.79,3.27,14.98,19.67,16.38,21.95,6.41,4.6,12.08,10.2,16.76,16.55,0,0,3.76-6.91,6.85-7.59,2.12-.47,4.21.1,5.84,2.45.75,1.07,1.4,2.53,1.89,4.43,1.58,6.04-2,27.59-2,27.59,1.41,5.76,2.15,11.77,2.15,17.96,0,3-.18,5.97-.52,8.88,1.29-.38,7.43-2.09,9.87-.66,1.05.61,1.87,1.46,2.32,2.58.7,1.73.51,4.11-1.09,7.27-1.98,4.76-17.82,17.13-20.34,19.09-3.4,6.01-7.59,11.5-12.44,16.34,0,0,7.5,2.97,8.61,5.93.76,2.04.48,4.23-1.66,6.17-.93.85-2.22,1.66-3.93,2.39-5.54,2.49-27.44,1.84-27.44,1.84-6.8,2.82-14.11,4.68-21.75,5.4,0,0,3.63,6.64,2.63,9.64-.51,1.55-1.53,2.78-3.22,3.39-1.59.56-3.76.56-6.66-.29-3.15-.92-9.14-5.21-14.14-9.11-4.35-3.38-7.93-6.44-8.17-6.65-8.46-2.62-16.28-6.68-23.17-11.89,0,0-1.84,7.6-4.62,9.11-2.13,1.16-4.61,1.06-7.09-1.46-.75-.77-1.51-1.76-2.25-3.01-.38-.64-.75-1.51-1.11-2.54-2.44-7.1-4.18-21.93-4.39-23.84-3.6-6.05-6.37-12.64-8.17-19.63-.88.66-6.51,4.76-9.37,4.26-1.72-.3-3.18-1.22-3.99-3.02-.68-1.47-.93-3.52-.56-6.29.78-5.72,10.7-21.77,12.16-24.11,1.11-8.28,3.58-16.13,7.17-23.32,0,0-7.73-.35-9.74-2.79-1.35-1.63-1.8-3.71-.56-6.15.61-1.21,1.64-2.5,3.18-3.87,4.59-4.09,24.4-10.27,25.03-10.47,2.93-2.57,6.05-4.92,9.35-7.01Z"/><path class="cls-1" d="M528.27,187.96c-.21-.06-15.65-15.77-32.85-27.21"/><path class="cls-1" d="M475.56,156.29s-9.49-6.14-43.74-1.71"/><path class="cls-1" d="M411.69,168.52s-20.74,7.05-35.57,25.72"/><path class="cls-1" d="M369.95,219.99s-6.02,9.79-4.15,26.98"/><path class="cls-1" d="M371.32,279.69s4.26,8.09,14.54,18.05"/><path class="cls-1" d="M405.73,325.04s7.21,2.11,17.68,1.34"/><path class="cls-1" d="M471.92,335.32s7.82-3.23,17.1-10.13"/><path class="cls-1" d="M523.19,306.16s6.21-10.72,9.45-22.3"/><path class="cls-1" d="M547.39,250.07s0-16.25-9.51-40.78"/><path class="cls-4" d="M525.88,198.5s6.91,1.72,1.4,29.81"/><path class="cls-4" d="M540.56,259.56s4.91,5.89-19.18,22.55"/><path class="cls-4" d="M515.73,309.73s.2,7.67-29.04,5.78"/><path class="cls-4" d="M463.26,332.48s-3.65,7.08-26.35-13.5"/><path class="cls-4" d="M405.02,314.99s-7.92,4.83-10.47-27.7"/><path class="cls-4" d="M374.54,268.63s-9.2-1.16,9.07-28.18"/><path class="cls-4" d="M381.23,210.07s-6.27-6.83,25.15-15.63"/><path class="cls-4" d="M421.83,170.88s-.55-8.89,29.36,4.13"/><path class="cls-4" d="M477.19,165.46s6.49-2.94,19.6,22.51"/></g></svg>