<svg xmlns="http://www.w3.org/2000/svg" width="500" height="500" viewBox="0 0 500 500">
<g>
<path d="M 187.92,330.52 L 190.52,330.64 L 191.79,330.73 L 194.12,331.03 L 195.26,331.20 L 197.37,331.70 L 198.40,331.97 L 200.32,332.67 L 201.26,333.05 L 203.04,333.98 L 203.92,334.47 L 205.60,335.64 L 206.42,336.26 L 208.04,337.69 L 210.44,340.14 L 211.79,341.65 L 213.90,344.72 L 214.87,346.28 L 216.25,349.60 L 216.86,351.32 L 217.58,355.10 L 218.00,361.50 L 218.00,362.76 L 217.89,365.08 L 217.82,366.21 L 217.55,368.31 L 217.24,370.37 L 216.09,373.99 L 215.42,375.74 L 213.46,378.96 L 209.48,383.65 L 208.46,384.67 L 206.22,386.47 L 205.07,387.33 L 202.62,388.79 L 201.36,389.48 L 198.71,390.60 L 197.37,391.12 L 194.57,391.90 L 193.15,392.24 L 190.24,392.65 L 188.77,392.81 L 185.77,392.86 L 184.27,392.83 L 181.23,392.50 L 179.71,392.29 L 176.67,391.57 L 175.05,391.13 L 171.92,389.79 L 170.39,389.04 L 167.51,387.13 L 166.11,386.11 L 163.57,383.71 L 160.26,379.63 L 159.19,378.03 L 157.58,374.97 L 156.87,373.44 L 155.93,370.30 L 155.53,368.69 L 155.18,365.13 L 155.22,359.00 L 155.31,357.50 L 155.72,354.66 L 155.96,353.27 L 156.67,350.63 L 157.06,349.35 L 158.07,346.93 L 158.62,345.75 L 159.93,343.54 L 160.62,342.47 L 162.23,340.48 L 163.08,339.52 L 164.98,337.75 L 165.98,336.90 L 168.18,335.35 L 171.82,333.29 L 173.06,332.68 L 175.10,331.83 L 176.09,331.45 L 178.07,330.99 L 179.11,330.79 L 181.59,330.60 L 182.27,330.57 L 183.82,330.53 L 186.50,330.52 M 184.97,346.37 L 182.73,347.07 L 181.41,347.53 L 179.27,348.82 L 178.27,349.52 L 176.74,351.33 L 176.04,352.30 L 175.08,354.68 L 174.23,358.94 L 174.13,360.03 L 174.13,362.11 L 174.17,363.14 L 174.45,365.09 L 174.62,366.05 L 175.15,367.83 L 175.45,368.70 L 176.22,370.28 L 176.63,371.05 L 177.61,372.40 L 178.13,373.04 L 179.32,374.13 L 179.93,374.63 L 181.30,375.42 L 183.54,376.23 L 184.23,376.39 L 185.91,376.43 L 186.79,376.41 L 188.66,376.12 L 189.60,375.94 L 191.38,375.38 L 192.24,375.07 L 193.66,374.28 L 194.35,373.84 L 195.55,372.55 L 196.11,371.86 L 197.05,370.16 L 197.49,369.27 L 198.15,367.28 L 198.45,366.26 L 198.82,364.09 L 198.97,363.00 L 199.04,360.78 L 199.04,359.68 L 198.79,357.53 L 198.62,356.48 L 198.02,354.52 L 196.73,351.93 L 196.08,350.97 L 194.02,349.11 L 190.62,347.11 L 189.78,346.79 L 188.47,346.39 L 187.84,346.23 L 186.74,346.14 L 186.18,346.14 Z" fill="rgba(4,188,98,1)"/>
<path d="M 113.59,314.52 L 114.52,314.53 L 116.10,314.59 L 117.62,314.66 L 119.97,315.00 L 121.10,315.21 L 123.27,315.94 L 123.84,316.16 L 125.06,316.69 L 127.15,317.65 L 129.56,318.79 L 133.83,321.60 L 135.87,323.09 L 139.36,326.53 L 140.99,328.32 L 143.60,332.29 L 144.20,333.31 L 145.20,335.44 L 146.44,338.75 L 146.61,339.31 L 146.67,340.04 L 146.64,340.20 L 146.41,340.44 L 146.27,340.55 L 145.77,340.71 L 145.48,340.78 L 144.63,340.88 L 144.15,340.92 L 142.89,340.96 L 142.19,340.98 L 140.44,340.99 L 137.19,341.00 L 127.24,341.00 L 122.19,335.96 L 119.72,334.20 L 118.45,333.40 L 115.79,332.31 L 114.45,331.84 L 111.70,331.41 L 110.33,331.27 L 107.60,331.47 L 106.25,331.66 L 103.63,332.49 L 102.35,332.99 L 99.94,334.44 L 98.78,335.24 L 96.68,337.29 L 94.00,341.04 L 93.48,341.97 L 92.73,343.62 L 92.40,344.44 L 91.97,346.16 L 91.79,347.07 L 91.60,349.26 L 91.50,353.50 L 91.50,354.37 L 91.52,355.88 L 91.54,356.60 L 91.59,357.85 L 91.67,359.04 L 91.99,360.94 L 92.18,361.84 L 92.83,363.49 L 94.29,366.25 L 95.19,367.78 L 97.27,370.20 L 98.36,371.30 L 100.90,372.92 L 102.23,373.63 L 105.33,374.49 L 110.71,375.00 L 112.32,375.00 L 115.19,374.59 L 116.57,374.32 L 118.99,373.38 L 120.14,372.85 L 122.11,371.37 L 124.56,368.55 L 124.96,367.93 L 125.71,367.11 L 126.14,366.76 L 127.43,366.35 L 127.82,366.27 L 128.82,366.16 L 129.36,366.11 L 130.73,366.05 L 131.47,366.03 L 133.28,366.01 L 136.62,366.00 L 138.04,366.00 L 140.65,366.04 L 141.89,366.07 L 143.95,366.17 L 144.89,366.22 L 146.18,366.34 L 146.44,366.38 L 146.79,366.45 L 147.00,366.56 L 147.00,366.92 L 146.73,367.91 L 146.56,368.45 L 145.98,369.73 L 145.67,370.40 L 144.85,371.89 L 144.42,372.65 L 143.41,374.24 L 142.38,375.84 L 140.00,378.99 L 139.40,379.74 L 138.20,381.11 L 136.45,382.87 L 135.37,383.86 L 133.05,385.61 L 131.87,386.45 L 129.36,387.91 L 128.08,388.60 L 125.41,389.76 L 124.05,390.30 L 121.23,391.15 L 119.80,391.53 L 116.86,392.07 L 115.38,392.29 L 112.35,392.50 L 110.82,392.57 L 107.71,392.45 L 106.15,392.35 L 103.00,391.90 L 101.50,391.65 L 98.59,390.86 L 97.14,390.42 L 94.36,389.27 L 92.98,388.66 L 90.36,387.18 L 89.06,386.40 L 86.62,384.61 L 85.42,383.68 L 83.19,381.60 L 82.11,380.52 L 80.12,378.17 L 79.15,376.97 L 77.43,374.37 L 75.18,370.22 L 74.58,368.94 L 73.75,366.83 L 73.39,365.79 L 72.94,363.63 L 72.85,363.05 L 72.72,361.77 L 72.66,361.09 L 72.58,359.54 L 72.55,358.73 L 72.52,356.83 L 72.50,353.50 L 72.50,352.22 L 72.51,350.05 L 72.53,349.02 L 72.58,347.28 L 72.61,346.46 L 72.72,345.04 L 72.79,344.36 L 72.97,343.15 L 73.18,341.98 L 73.92,339.78 L 74.13,339.21 L 74.67,337.97 L 75.65,335.85 L 76.08,334.93 L 77.21,332.93 L 77.80,331.93 L 79.11,329.92 L 79.78,328.94 L 81.12,327.15 L 83.00,325.00 L 83.58,324.42 L 85.15,323.12 L 85.99,322.46 L 87.92,321.11 L 88.90,320.44 L 90.93,319.21 L 93.85,317.65 L 94.61,317.29 L 95.94,316.69 L 96.57,316.41 L 97.73,315.94 L 98.86,315.51 L 101.03,315.00 L 102.16,314.78 L 104.90,314.59 L 105.65,314.55 L 107.41,314.52 L 110.50,314.50 L 111.64,314.50 Z" fill="rgba(93,224,229,1)"/>
<path d="M 402.34,330.31 L 404.96,330.46 L 406.25,330.56 L 408.69,330.91 L 409.87,331.11 L 411.99,331.66 L 414.62,332.71 L 416.19,333.54 L 418.87,335.56 L 420.15,336.62 L 422.26,339.11 L 423.25,340.42 L 424.83,343.43 L 426.60,348.54 L 427.22,351.00 L 417.57,351.00 L 415.88,350.99 L 415.08,350.98 L 413.78,350.94 L 413.18,350.92 L 412.21,350.84 L 411.76,350.79 L 411.06,350.65 L 410.42,350.49 L 409.68,349.93 L 408.87,348.61 L 408.52,347.85 L 407.43,346.60 L 406.83,346.03 L 405.37,345.17 L 404.61,344.78 L 402.94,344.30 L 402.10,344.11 L 400.39,344.00 L 399.55,344.00 L 397.97,344.28 L 397.21,344.47 L 395.93,345.13 L 395.34,345.51 L 394.52,346.55 L 394.00,348.55 L 394.00,349.28 L 394.53,350.46 L 394.73,350.75 L 395.36,351.30 L 395.71,351.57 L 396.69,352.13 L 397.23,352.41 L 398.64,353.00 L 399.41,353.31 L 401.32,353.98 L 402.34,354.33 L 404.82,355.12 L 409.25,356.46 L 410.94,356.96 L 413.93,358.05 L 415.36,358.60 L 417.83,359.81 L 419.01,360.43 L 421.00,361.77 L 421.93,362.47 L 423.45,363.99 L 424.15,364.77 L 425.22,366.48 L 425.70,367.36 L 426.35,369.28 L 426.62,370.27 L 426.85,372.43 L 426.78,375.97 L 426.66,377.20 L 426.09,379.47 L 425.75,380.58 L 424.75,382.60 L 424.20,383.58 L 422.80,385.35 L 422.04,386.19 L 420.24,387.68 L 419.29,388.39 L 417.11,389.59 L 415.98,390.15 L 413.44,391.05 L 412.13,391.46 L 409.25,392.05 L 404.57,392.55 L 402.62,392.66 L 398.47,392.54 L 397.49,392.49 L 395.75,392.32 L 394.95,392.22 L 393.73,391.98 L 391.68,391.46 L 387.81,389.82 L 385.93,388.92 L 382.62,386.66 L 381.05,385.48 L 378.56,382.81 L 378.00,382.12 L 377.08,380.71 L 376.04,378.56 L 375.71,377.68 L 375.17,376.25 L 374.92,375.59 L 374.59,374.56 L 374.47,374.09 L 374.43,373.39 L 374.45,373.07 L 374.76,372.64 L 374.97,372.45 L 375.70,372.22 L 376.13,372.13 L 377.35,372.04 L 378.03,372.01 L 379.81,372.00 L 383.18,372.01 L 384.34,372.01 L 386.24,372.01 L 387.14,372.02 L 388.57,372.06 L 389.24,372.08 L 390.29,372.17 L 390.77,372.22 L 391.53,372.39 L 392.22,372.57 L 393.05,373.26 L 394.17,374.95 L 394.47,375.47 L 395.14,376.33 L 395.49,376.73 L 396.31,377.36 L 396.75,377.65 L 397.76,378.10 L 399.57,378.58 L 400.97,378.84 L 403.32,378.89 L 404.42,378.84 L 406.15,378.27 L 406.93,377.91 L 407.99,376.74 L 408.81,374.34 L 408.88,373.62 L 408.86,372.59 L 408.80,372.13 L 408.39,371.45 L 408.12,371.14 L 407.14,370.59 L 404.81,369.66 L 404.21,369.45 L 402.53,368.89 L 401.62,368.60 L 399.51,367.93 L 392.83,365.94 L 391.65,365.60 L 389.51,364.88 L 388.47,364.51 L 386.60,363.71 L 385.69,363.30 L 384.08,362.42 L 383.30,361.97 L 381.94,361.00 L 380.64,360.01 L 378.76,357.74 L 376.96,353.83 L 376.67,352.77 L 376.38,350.68 L 376.29,349.64 L 376.38,347.61 L 376.47,346.60 L 376.93,344.65 L 377.20,343.69 L 378.01,341.84 L 378.46,340.94 L 379.61,339.21 L 380.23,338.37 L 381.73,336.79 L 382.51,336.02 L 384.33,334.61 L 387.41,332.69 L 388.15,332.30 L 390.04,331.65 L 391.04,331.35 L 393.33,330.91 L 394.51,330.71 L 397.06,330.46 L 398.35,330.36 L 401.01,330.31 Z" fill="rgba(237,11,60,1)"/>
<path d="M 367.46,330.35 L 367.77,330.47 L 368.22,331.05 L 368.42,331.42 L 368.69,332.69 L 368.81,333.44 L 368.93,335.66 L 368.96,336.29 L 368.98,337.76 L 369.00,340.33 L 369.00,349.73 L 362.66,350.24 L 361.05,350.36 L 358.22,350.90 L 356.87,351.21 L 354.63,352.08 L 353.58,352.55 L 351.99,353.73 L 350.41,355.81 L 350.35,355.93 L 350.24,356.50 L 350.19,356.84 L 350.08,357.83 L 350.02,358.37 L 349.91,359.71 L 349.85,360.42 L 349.74,362.07 L 349.64,363.79 L 349.45,367.92 L 349.22,374.75 L 348.80,392.00 L 330.00,392.00 L 330.00,331.00 L 349.00,331.00 L 349.00,340.23 L 352.85,336.76 L 353.91,335.80 L 356.58,334.01 L 357.97,333.16 L 360.85,331.77 L 362.26,331.15 L 364.76,330.42 L 365.34,330.29 L 366.32,330.20 M 247.00,392.00 L 228.00,392.00 L 228.00,311.00 L 247.00,311.00 Z" fill="rgba(251,220,92,1)"/>
<path d="M 291.47,330.15 L 292.72,330.26 L 295.24,330.68 L 299.07,331.61 L 300.78,332.11 L 303.90,333.43 L 305.42,334.14 L 308.16,335.85 L 309.48,336.76 L 311.81,338.85 L 312.92,339.94 L 314.84,342.39 L 315.74,343.66 L 317.23,346.46 L 317.91,347.89 L 318.95,351.01 L 319.42,352.61 L 320.01,356.04 L 320.36,361.50 L 320.36,363.84 L 319.95,367.88 L 319.67,369.82 L 318.61,373.28 L 317.99,374.96 L 316.19,378.12 L 312.52,382.84 L 311.56,383.91 L 309.33,385.81 L 308.16,386.72 L 305.59,388.29 L 304.26,389.04 L 301.42,390.26 L 299.98,390.83 L 296.96,391.70 L 295.44,392.08 L 292.32,392.56 L 290.76,392.75 L 287.63,392.82 L 286.07,392.80 L 283.00,392.44 L 281.48,392.21 L 278.55,391.41 L 276.71,390.82 L 273.35,389.26 L 271.72,388.42 L 268.80,386.40 L 267.40,385.33 L 264.94,382.88 L 263.78,381.60 L 261.82,378.76 L 260.91,377.29 L 259.47,374.10 L 258.81,372.47 L 257.92,368.97 L 257.54,367.19 L 257.21,363.42 L 257.39,357.52 L 257.52,356.26 L 257.98,353.85 L 258.24,352.65 L 258.94,350.38 L 259.32,349.26 L 260.26,347.13 L 260.75,346.09 L 261.90,344.13 L 263.10,342.20 L 266.09,338.87 L 267.67,337.30 L 271.32,334.74 L 273.22,333.56 L 277.42,331.83 L 279.57,331.08 L 284.19,330.26 L 286.55,329.98 M 288.09,346.00 L 285.80,346.55 L 284.67,346.91 L 282.57,348.10 L 281.56,348.75 L 279.84,350.45 L 277.90,353.42 L 277.49,354.32 L 276.89,356.09 L 276.63,356.98 L 276.30,358.73 L 276.04,360.47 L 276.24,363.78 L 276.45,365.39 L 277.49,368.32 L 278.10,369.72 L 279.82,372.09 L 280.76,373.19 L 283.04,374.84 L 284.23,375.55 L 286.90,376.30 L 287.59,376.43 L 289.01,376.48 L 289.73,376.47 L 291.21,376.23 L 291.95,376.08 L 293.45,375.54 L 294.21,375.23 L 295.73,374.37 L 296.36,373.98 L 297.47,372.84 L 298.01,372.22 L 298.93,370.69 L 299.36,369.89 L 300.06,368.08 L 300.38,367.15 L 300.85,365.16 L 301.05,364.15 L 301.25,362.08 L 301.32,361.05 L 301.25,359.00 L 301.17,357.99 L 300.80,356.07 L 299.88,353.44 L 299.46,352.57 L 297.97,350.80 L 297.16,349.94 L 295.18,348.41 L 294.16,347.70 L 292.08,346.67 L 289.25,346.00 Z" fill="rgba(250,103,193,1)"/>
<path d="M 167.81,297.60 L 166.51,297.25 L 163.96,296.31 L 163.37,296.07 L 162.38,295.60 L 161.31,294.97 L 160.05,294.02 L 157.78,292.05 L 156.68,291.05 L 154.74,289.00 L 153.82,287.96 L 152.21,285.82 L 150.16,282.50 L 147.50,277.50 L 147.21,232.35 L 146.92,187.21 L 149.71,184.98 L 150.38,184.44 L 151.59,183.74 L 151.92,183.59 L 152.70,183.37 L 153.12,183.27 L 154.18,183.14 L 154.75,183.09 L 156.21,183.05 L 157.00,183.04 L 158.97,183.07 L 160.04,183.09 L 162.67,183.18 L 167.47,183.38 L 168.90,183.44 L 171.43,183.56 L 172.63,183.62 L 174.73,183.75 L 175.72,183.82 L 177.43,183.96 L 178.23,184.04 L 179.58,184.20 L 180.22,184.28 L 181.26,184.46 L 181.74,184.56 L 182.51,184.77 L 183.97,185.54 L 184.13,185.71 L 184.42,186.38 L 184.55,186.79 L 184.78,188.15 L 184.88,188.95 L 185.05,191.26 L 185.09,191.91 L 185.17,193.44 L 185.20,194.25 L 185.26,196.10 L 185.29,197.07 L 185.35,199.29 L 185.37,200.45 L 185.42,203.07 L 185.44,204.43 L 185.48,207.47 L 185.50,209.05 L 185.53,212.55 L 185.55,214.36 L 185.57,218.36 L 185.59,220.42 L 185.61,224.95 L 185.62,227.28 L 185.64,232.36 L 185.67,240.66 L 185.85,294.24 L 183.47,296.62 L 182.78,297.31 L 180.95,298.22 L 179.96,298.61 L 177.51,298.92 L 176.21,299.00 L 173.13,298.71 L 171.52,298.49 M 194.44,297.58 L 194.20,297.41 L 193.81,296.88 L 193.63,296.53 L 193.34,295.21 L 193.27,294.81 L 193.14,293.75 L 193.08,293.17 L 192.98,291.70 L 192.93,290.92 L 192.84,288.98 L 192.80,287.95 L 192.72,285.46 L 192.69,284.14 L 192.63,281.04 L 192.60,279.40 L 192.54,275.60 L 192.52,273.61 L 192.47,269.04 L 192.45,266.65 L 192.41,261.24 L 192.40,258.42 L 192.36,252.09 L 192.35,248.81 L 192.31,241.49 L 192.31,239.59 L 192.29,235.60 L 192.28,233.57 L 192.27,229.31 L 192.26,227.15 L 192.24,222.60 L 192.22,215.46 L 192.21,212.56 L 192.18,207.05 L 192.17,204.35 L 192.15,199.22 L 192.14,196.70 L 192.12,191.93 L 192.11,189.59 L 192.10,185.16 L 192.09,183.00 L 192.07,178.91 L 192.07,176.91 L 192.06,173.14 L 192.06,171.30 L 192.06,167.84 L 192.06,166.15 L 192.06,162.99 L 192.07,161.44 L 192.08,158.57 L 192.09,157.16 L 192.12,154.55 L 192.15,152.01 L 192.25,147.67 L 192.30,145.62 L 192.46,142.19 L 192.55,140.58 L 192.77,137.96 L 192.90,136.74 L 193.21,134.81 L 193.37,133.92 L 193.77,132.59 L 193.98,131.99 L 194.48,131.15 L 194.75,130.77 L 195.36,130.31 L 195.69,130.12 L 196.42,129.94 L 196.81,129.88 L 197.68,129.87 L 200.84,130.00 L 201.64,130.00 L 203.47,130.13 L 204.40,130.21 L 206.31,130.47 L 207.26,130.61 L 209.04,130.97 L 211.32,131.59 L 212.11,131.86 L 213.75,132.62 L 214.57,133.03 L 216.22,134.04 L 217.87,135.10 L 221.01,137.79 L 222.53,139.20 L 225.15,142.34 L 228.11,147.22 L 230.50,152.50 L 230.78,223.08 L 230.78,225.28 L 230.80,229.48 L 230.81,231.54 L 230.82,235.47 L 230.84,239.34 L 230.86,246.33 L 230.87,249.70 L 230.89,255.75 L 230.90,258.66 L 230.90,263.84 L 230.90,266.33 L 230.90,270.72 L 230.89,272.82 L 230.87,276.48 L 230.86,278.23 L 230.82,281.24 L 230.80,282.67 L 230.75,285.10 L 230.72,286.25 L 230.65,288.17 L 230.61,289.07 L 230.52,290.54 L 230.47,291.23 L 230.36,292.34 L 230.30,292.85 L 230.16,293.66 L 230.01,294.41 L 229.64,295.31 L 228.95,296.33 L 226.85,299.00 L 211.62,299.00 L 210.17,299.00 L 207.62,298.98 L 206.39,298.97 L 204.26,298.93 L 203.24,298.91 L 201.48,298.84 L 200.65,298.80 L 199.24,298.69 L 198.58,298.64 L 197.47,298.50 L 196.95,298.43 L 196.12,298.26 L 195.34,298.07 M 283.07,297.45 L 280.40,296.87 L 275.36,295.22 L 272.89,294.33 L 268.27,292.09 L 266.01,290.91 L 261.83,288.14 L 259.80,286.70 L 256.08,283.46 L 254.29,281.79 L 251.05,278.15 L 249.49,276.28 L 246.76,272.28 L 245.46,270.24 L 243.25,265.95 L 242.21,263.78 L 240.54,259.26 L 239.77,256.98 L 238.67,252.29 L 238.18,249.93 L 237.66,245.13 L 237.47,242.72 L 237.55,237.87 L 237.66,235.44 L 238.36,230.60 L 238.79,228.18 L 240.14,223.41 L 240.89,221.04 L 242.90,216.39 L 243.98,214.09 L 246.67,209.64 L 251.49,203.24 L 252.79,201.73 L 256.16,198.66 L 257.95,197.13 L 261.98,194.21 L 264.04,192.80 L 268.33,190.31 L 274.62,187.38 L 275.67,186.97 L 278.06,186.27 L 279.29,185.94 L 281.97,185.37 L 284.70,184.84 L 290.59,184.24 L 293.55,184.02 L 299.29,184.08 L 300.68,184.14 L 303.28,184.38 L 306.84,184.97 L 309.54,185.56 L 314.68,187.26 L 317.20,188.19 L 321.98,190.54 L 324.31,191.78 L 328.67,194.73 L 330.79,196.27 L 334.68,199.77 L 336.56,201.59 L 339.94,205.60 L 341.56,207.66 L 344.38,212.13 L 345.72,214.42 L 347.93,219.32 L 350.52,227.07 L 350.79,228.11 L 351.21,230.55 L 351.39,231.82 L 351.64,234.61 L 351.85,237.47 L 351.80,243.68 L 351.70,246.78 L 351.04,252.67 L 350.84,254.08 L 350.34,256.65 L 349.42,260.00 L 348.65,262.26 L 346.59,266.63 L 345.47,268.79 L 342.78,272.92 L 341.36,274.94 L 338.12,278.75 L 336.44,280.60 L 332.73,284.02 L 330.82,285.67 L 326.72,288.63 L 324.63,290.05 L 320.21,292.48 L 317.98,293.63 L 313.33,295.47 L 306.18,297.49 L 303.98,297.94 L 300.06,298.51 L 298.15,298.74 L 294.53,298.85 L 292.72,298.84 L 289.05,298.49 L 287.17,298.26 M 277.50,261.00 L 282.57,256.00 L 286.53,258.07 L 287.12,258.38 L 288.50,258.87 L 289.21,259.09 L 290.77,259.41 L 292.36,259.69 L 295.79,259.74 L 297.49,259.69 L 300.71,259.09 L 301.47,258.90 L 302.86,258.41 L 304.65,257.49 L 305.30,257.07 L 306.23,256.60 L 306.68,256.45 L 307.59,256.69 L 307.84,256.80 L 308.42,257.20 L 308.73,257.43 L 309.47,258.08 L 309.87,258.44 L 310.84,259.37 L 312.61,261.11 L 313.51,261.99 L 315.02,263.37 L 315.74,263.99 L 316.89,264.84 L 317.42,265.20 L 318.21,265.52 L 318.98,265.42 L 319.15,265.25 L 319.09,264.65 L 318.99,264.31 L 318.40,263.35 L 318.04,262.83 L 316.92,261.52 L 314.66,259.15 L 309.33,253.89 L 311.74,249.20 L 312.43,247.85 L 313.28,245.07 L 313.61,243.67 L 313.72,240.77 L 313.69,239.31 L 313.08,236.29 L 311.36,231.62 L 309.57,227.88 L 312.75,225.40 L 313.74,224.63 L 315.58,222.82 L 316.46,221.91 L 317.87,220.11 L 318.50,219.25 L 319.21,217.85 L 319.33,217.54 L 319.39,217.06 L 319.16,216.60 L 319.04,216.53 L 318.40,216.82 L 318.03,217.03 L 316.97,217.81 L 316.41,218.25 L 315.08,219.42 L 312.93,221.48 L 307.57,226.90 L 304.04,224.71 L 302.84,223.97 L 299.87,223.04 L 298.33,222.67 L 295.01,222.47 L 293.35,222.47 L 290.11,223.01 L 285.84,224.66 L 282.23,226.80 L 276.91,221.41 L 276.02,220.51 L 274.52,219.11 L 273.81,218.48 L 272.66,217.61 L 272.14,217.25 L 271.35,216.92 L 270.58,217.02 L 270.42,217.18 L 270.47,217.78 L 270.57,218.13 L 271.14,219.09 L 271.50,219.62 L 272.59,220.94 L 274.82,223.32 L 280.06,228.62 L 277.91,233.47 L 277.29,234.88 L 276.57,237.88 L 276.29,239.40 L 276.26,242.48 L 276.32,244.02 L 276.96,246.97 L 278.67,251.02 L 280.43,254.00 L 275.19,259.31 L 274.07,260.45 L 272.46,262.28 L 271.76,263.12 L 271.01,264.36 L 270.73,264.91 L 270.82,265.60 L 271.89,266.00 L 271.96,266.00 L 272.50,265.61 L 272.82,265.35 L 273.76,264.53 L 274.27,264.08 L 275.49,262.94 L 276.13,262.34 M 156.92,165.68 L 156.27,165.33 L 155.01,164.42 L 154.38,163.93 L 153.18,162.76 L 152.01,161.54 L 150.02,158.58 L 149.10,157.05 L 147.82,153.80 L 147.56,152.99 L 147.21,151.40 L 147.00,149.10 L 147.00,147.85 L 147.65,145.09 L 148.07,143.69 L 149.42,140.85 L 150.17,139.45 L 152.07,136.85 L 155.34,133.56 L 156.20,132.88 L 157.60,131.93 L 158.28,131.52 L 159.66,131.01 L 160.40,130.79 L 162.21,130.59 L 162.72,130.56 L 163.88,130.52 L 165.92,130.50 L 167.33,130.50 L 169.51,130.60 L 170.53,130.68 L 172.17,131.01 L 172.96,131.20 L 174.42,131.84 L 176.80,133.25 L 177.98,134.03 L 179.98,135.89 L 180.93,136.87 L 182.44,139.05 L 183.14,140.17 L 184.15,142.58 L 184.59,143.81 L 185.08,146.36 L 185.27,147.65 L 185.24,150.27 L 185.15,151.58 L 184.58,154.17 L 184.23,155.46 L 183.10,157.94 L 180.78,161.45 L 180.07,162.31 L 178.46,163.79 L 177.64,164.49 L 175.83,165.64 L 174.90,166.17 L 172.93,166.98 L 171.93,167.35 L 169.85,167.81 L 168.80,167.99 L 166.64,168.10 L 165.56,168.11 L 163.37,167.85 L 162.28,167.67 L 160.11,167.05 L 159.03,166.68 Z" fill="rgba(254,254,254,1)"/>
</g>
</svg>