<?xml version="1.0" encoding="UTF-8"?>
<svg id="Calque_2" data-name="Calque 2" xmlns="http://www.w3.org/2000/svg" viewBox="0 0 144.01 168.11">
  <defs>
    <style>
      .cls-1 {
        fill: #1d1d1b;
      }

      .cls-1, .cls-2 {
        stroke-width: 0px;
      }

      .cls-2 {
        fill: #020202;
      }
    </style>
  </defs>
  <g id="Calque_1-2" data-name="Calque 1">
    <g>
      <path class="cls-1" d="m64.62,139.78c9.54-4.89,15.78-4.16,20.47,2.18,4.82,6.51,4.38,15.93-1.02,21.62-5.29,5.57-11.89,6.02-18.92,1.24-1.38,4.69-5.03,1.79-8.11,2.68v-42.02h7.57v14.3Zm16.12,12.43c0-5.11-3.35-8.83-8.07-8.96-4.67-.12-8.47,3.96-8.42,9.03.05,5.21,3.33,8.74,8.14,8.78,5.15.04,8.36-3.36,8.36-8.85Z"/>
      <path class="cls-1" d="m50.78,152.11c.06,9.07-6.8,15.94-15.99,15.99-8.55.05-15.51-6.96-15.57-15.66-.05-9.04,6.92-16.05,15.96-16.04,8.54.01,15.53,7.05,15.59,15.71Zm-23.97-.09c-.18,5.18,3.1,8.92,7.91,9.03,4.79.11,8.4-3.45,8.61-8.51.21-4.93-3.32-8.9-8.06-9.08-4.77-.19-8.29,3.38-8.47,8.57Z"/>
      <path class="cls-1" d="m125.02,152.14c.05,9.07-6.82,15.92-16.01,15.96-8.54.04-15.5-6.98-15.54-15.69-.04-9.04,6.95-16.04,15.99-16.01,8.55.03,15.51,7.08,15.56,15.74Zm-15.74,8.91c4.73-.02,8.28-3.8,8.3-8.83.02-5-3.6-8.8-8.36-8.78-4.78.02-8.15,3.68-8.19,8.89-.04,5.13,3.37,8.74,8.25,8.72Z"/>
      <path class="cls-1" d="m139.87,143.97v23.2h-7.66v-23.22c-1.36-.16-2.37-.27-3.61-.41v-6.17c1-.16,2.02-.32,3.43-.55v-10.66h7.68v10.66c1.6.18,2.87.33,4.29.49v6.16c-1.29.16-2.55.31-4.14.51Z"/>
      <path class="cls-1" d="m7.82,167.2H.37v-29.9c2.6.2,5.67-1.93,6.91,2.53,2.41-2.98,5.24-4.18,9.18-2.69-.73,2.06-1.42,4.01-2.08,5.9-4.67.1-6.12,1.45-6.42,6.61-.26,4.5-.11,9.03-.14,13.55,0,1.28,0,2.56,0,4.02Z"/>
      <path class="cls-2" d="m143.71,77.96c.26,22.41-18.46,40.68-40.63,40.44-22.15-.24-40.02-18.36-39.91-40.52.12-22.6,18.44-40.23,40.36-40.19,22.49.04,40.3,18.5,40.17,40.27Zm-30.21,8.9c.1-.18.16-.29.22-.39.4-.59.85-1.15,1.18-1.77.41-.79.74-1.63,1.06-2.47.38-1.03.65-2.1.73-3.2.17-2.12-.24-4.12-1.04-6.08-.48-1.16-1.17-2.18-1.85-3.22-.26-.41-.27-.43.08-.78.5-.51,1.01-1,1.51-1.5.87-.86,1.74-1.7,2.6-2.57.87-.88,1.73-1.78,2.6-2.66.17-.17.38-.28.61-.44-.58-.54-1.03-.96-1.52-1.42-2.52,2.52-5.01,5.01-7.51,7.51-5.89-4.03-11.72-4.15-17.52.1-.84-.84-1.67-1.67-2.5-2.5-.83-.83-1.65-1.68-2.5-2.49-.84-.81-1.6-1.71-2.51-2.47-.48.4-.9.77-1.29,1.23,2.55,2.56,5.06,5.07,7.57,7.58-.92,1.21-1.69,2.42-2.21,3.78-.52,1.37-.89,2.79-1.04,4.25-.09.87.04,1.74.2,2.61.37,2.01,1.02,3.89,2.16,5.59.18.27.32.57.49.84.16.27.11.49-.1.72-.84.91-1.66,1.84-2.52,2.74-.74.78-1.53,1.52-2.3,2.27-.36.36-.72.71-1.07,1.08-.39.41-.76.82-1.15,1.24.35.38.64.72.95,1.04.23.24.35.23.61-.03,1.17-1.19,2.33-2.38,3.51-3.55.96-.96,1.93-1.92,2.92-2.85,1.04-.97.77-1,1.94-.17,1.28.91,2.7,1.51,4.17,1.97,1.19.37,2.44.44,3.69.43,1.63-.01,3.19-.34,4.69-.96.87-.36,1.71-.74,2.49-1.28.41-.29.86-.52,1.32-.8,2.67,2.4,5.07,4.99,7.64,7.46.45-.43.87-.83,1.34-1.28-2.57-2.54-5.09-5.03-7.65-7.56Z"/>
      <path class="cls-2" d="m31.66,59.38c0-16.15,0-32.31,0-48.46,0-2.16.06-4.32.09-6.48,0-.26.03-.53.03-.79-.04-2.13,1.94-3.53,3.53-3.61,1.24-.06,2.48-.05,3.72.02,1.14.06,2.28.17,3.39.4,2.08.43,4.05,1.16,5.9,2.25,1.91,1.12,3.59,2.5,5.06,4.17,1.2,1.37,2.16,2.88,3.02,4.48.88,1.63,1.31,3.41,1.88,5.15.11.34.12.72.12,1.08.02,14.2.02,28.4.04,42.59.02,18.07.04,36.14.07,54.21,0,1.53-.8,2.57-1.97,3.44-.62.46-1.27.53-2,.53-5.91,0-11.81.01-17.72.01-.61,0-1.22-.04-1.83-.09-1.03-.08-1.77-.65-2.4-1.42-.19-.23-.39-.48-.51-.76-.12-.27-.22-.57-.23-.87-.06-2.5-.12-5.01-.13-7.51-.05-16.11-.1-32.23-.14-48.34.02,0,.05,0,.07,0Z"/>
      <path class="cls-2" d="m26.91,78.25c0,12.26,0,24.53,0,36.79,0,.5-.1.91-.42,1.29-.22.26-.39.57-.62.83-.76.85-1.79,1.14-2.86,1.19-1.34.06-2.69.1-4.03-.01-2.01-.17-4.01-.48-5.9-1.22-1.82-.71-3.54-1.63-5.08-2.87-1.65-1.33-3.12-2.85-4.35-4.58-.84-1.18-1.49-2.46-2.07-3.79-.64-1.47-1-3-1.41-4.53-.07-.27-.11-.56-.11-.84,0-18.56.02-37.12.04-55.68,0-1.22.07-2.44.1-3.67.02-.76.25-1.44.83-1.96.23-.21.44-.43.66-.64.71-.68,1.61-.86,2.54-.88,2.57-.05,5.13-.1,7.7-.09,3.56.01,7.13.07,10.69.13.52,0,1.06.09,1.56.22,1.02.26,1.72.95,2.29,1.81.28.43.33.92.35,1.4.05,1.42.12,2.85.12,4.28,0,10.94,0,21.88,0,32.82h-.06Z"/>
      <path class="cls-2" d="m13.2.05c1.05.11,2.11.17,3.15.35,1.61.29,3.09.93,4.47,1.85.9.61,1.73,1.28,2.47,2.06,1.06,1.12,1.86,2.4,2.5,3.81,1.48,3.3,1.55,6.66.35,10.04-.35.99-.85,1.94-1.42,2.82-.55.84-1.25,1.58-1.98,2.3-.72.71-1.5,1.31-2.33,1.85-.61.39-1.31.66-1.98.95-2.47,1.08-5.05,1.25-7.65.7-1.55-.32-3.01-.93-4.36-1.81-.96-.63-1.87-1.29-2.66-2.13-.81-.86-1.48-1.82-2.07-2.86-.96-1.68-1.43-3.48-1.62-5.38-.21-2.11.09-4.15.91-6.1,1.09-2.57,2.79-4.63,5.12-6.21,1.13-.77,2.35-1.28,3.6-1.75,1.12-.42,2.31-.44,3.5-.5Z"/>
    </g>
  </g>
</svg>