<svg version="1.1" id="Layer_1" xmlns="http://www.w3.org/2000/svg" xmlns:xlink="http://www.w3.org/1999/xlink" x="0px" y="0px"
	 width="100%" viewBox="0 0 500 500" enable-background="new 0 0 500 500" xml:space="preserve">
<path fill="#000000" opacity="1.000000" stroke="none" 
	d="
M501.000000,178.000000 
	C501.000000,285.999969 501.000000,393.499939 501.000000,500.999939 
	C334.333405,500.999939 167.666794,500.999939 1.000147,500.999969 
	C1.000098,334.333435 1.000098,167.666870 1.000049,1.000237 
	C167.666519,1.000158 334.333038,1.000158 500.999786,1.000079 
	C501.000000,59.833332 501.000000,118.666664 501.000000,178.000000 
M448.044830,55.921146 
	C448.081116,64.282120 448.117432,72.643097 448.021149,81.932518 
	C448.082489,92.295502 448.143799,102.658493 448.028320,113.941177 
	C448.098755,133.638885 448.169189,153.336578 448.038879,173.897018 
	C448.049072,175.561005 448.258850,177.253189 448.028717,178.883240 
	C447.519165,182.491608 449.696869,183.660263 452.552643,183.672913 
	C456.975647,183.692505 461.427338,182.895721 465.814819,183.198639 
	C468.548248,183.387344 468.849884,182.007446 468.820038,180.333084 
	C468.627350,169.531525 468.141357,158.733795 468.049286,147.932266 
	C467.976135,139.351776 468.429138,130.768082 468.465393,122.185043 
	C468.515869,110.233864 468.411316,98.281860 468.341644,86.330391 
	C468.304443,79.945038 468.157928,73.560219 468.137268,67.174911 
	C468.102173,56.334343 468.127625,45.493572 468.127625,34.325615 
	C418.530609,34.325615 368.981323,34.325615 319.024811,34.325615 
	C319.024811,40.228516 319.024811,46.111828 319.130310,52.842079 
	C320.085205,53.226303 321.040039,53.946358 321.994965,53.946445 
	C363.665741,53.950161 405.336487,53.890182 447.433502,53.960918 
	C447.433502,53.960918 447.873840,54.014816 448.002380,54.509830 
	C448.059845,54.670128 448.117340,54.830429 448.044830,55.921146 
M385.973938,359.153656 
	C385.982330,357.323303 385.994019,355.492920 385.998535,353.662567 
	C386.028992,341.319489 376.567719,330.670990 363.026062,330.874603 
	C356.250854,330.976440 350.324738,332.427338 345.660797,336.452026 
	C344.281982,334.405487 343.274200,331.384033 341.982819,331.257538 
	C336.450806,330.715576 330.835236,331.026520 325.391785,331.026520 
	C325.391785,352.058685 325.391785,372.425812 325.391785,392.749329 
	C331.693146,392.749329 337.620880,392.749329 343.993347,392.749329 
	C343.993347,384.547729 343.879974,376.600647 344.037933,368.658936 
	C344.125854,364.239380 344.349396,359.775208 345.086395,355.428558 
	C345.908783,350.578339 351.836853,346.429749 356.330688,346.991486 
	C361.645630,347.655853 366.580170,353.095093 366.505859,357.973175 
	C366.350708,368.156586 366.232056,378.342010 366.268799,388.525970 
	C366.279053,391.371826 367.574280,393.265564 371.012238,393.053284 
	C375.321991,392.787140 379.654449,392.888275 384.841125,392.911682 
	C385.225800,391.979797 385.941132,391.049072 385.944275,390.115875 
	C385.978241,380.102081 385.899750,370.087952 385.973938,359.153656 
M448.037903,402.968292 
	C448.080200,417.645416 448.122528,432.322571 447.773621,447.729980 
	C445.920746,448.153320 444.068481,448.943054 442.214935,448.946014 
	C403.051147,449.008575 363.887238,448.982513 324.723328,448.973846 
	C322.792480,448.973419 320.861664,448.973785 318.679871,448.973785 
	C318.679871,455.920502 318.679871,462.162781 318.679871,468.605011 
	C321.111816,468.379028 323.156097,468.037628 325.202454,468.024811 
	C334.582855,467.966034 343.963806,467.999084 353.344574,467.999451 
	C375.272339,468.000275 397.200104,468.001709 419.127869,468.002136 
	C434.174744,468.002411 449.221649,467.989105 464.268463,468.014435 
	C466.492035,468.018188 468.462463,468.127655 468.424744,464.907288 
	C468.220947,447.501465 468.090576,430.094574 467.998444,412.687744 
	C467.940979,401.833588 467.997955,390.978790 468.000000,380.124298 
	C468.002686,365.936707 467.922577,351.748444 468.045593,337.561920 
	C468.088348,332.629303 468.867432,327.696808 468.780060,322.773651 
	C468.757568,321.506378 466.902679,319.496429 465.577271,319.193390 
	C463.042084,318.613678 460.282043,318.973663 457.616455,319.015503 
	C447.277008,319.177795 447.766418,317.100952 447.986084,329.937469 
	C448.025879,342.636383 448.065643,355.335266 448.009033,368.963196 
	C448.043091,379.988647 448.077148,391.014069 448.037903,402.968292 
M245.442673,213.064301 
	C242.645737,219.513275 239.552536,225.653732 238.727448,233.005524 
	C237.557632,243.429367 238.312653,253.188782 241.896423,263.075684 
	C252.633316,292.696503 286.737122,307.742157 316.418427,296.188690 
	C343.608612,285.604889 358.525330,258.384155 352.862030,231.018112 
	C346.573303,200.629684 318.186523,179.996002 287.555511,184.879395 
	C269.230652,187.800858 255.639420,196.996796 245.442673,213.064301 
M231.961761,260.500000 
	C231.965103,226.371414 231.953125,192.242813 231.984436,158.114258 
	C231.990875,151.083374 229.071106,145.151871 224.553604,140.203568 
	C218.908737,134.020401 211.852859,130.911331 203.128326,130.300293 
	C196.340057,129.824890 193.013428,131.281296 193.013519,138.018005 
	C193.014191,188.128738 193.017853,238.239487 193.020309,288.350220 
	C193.020370,289.515594 193.097672,290.687531 193.002563,291.845215 
	C192.508896,297.853271 194.507126,299.967621 200.764954,299.970978 
	C208.423080,299.975098 216.081192,299.971832 223.739319,299.971252 
	C230.340408,299.970734 231.959656,298.310944 231.966324,291.466522 
	C231.976059,281.477692 231.964340,271.488831 231.961761,260.500000 
M160.499969,53.979252 
	C167.915726,53.979252 175.331482,53.979252 182.956726,53.979252 
	C182.956726,50.087078 182.958374,46.935356 182.956436,43.783638 
	C182.950394,33.993843 182.949860,33.995426 173.478561,33.995815 
	C131.179947,33.997551 88.881302,34.011528 46.582729,33.969303 
	C43.799519,33.966526 41.019333,33.491993 38.232960,33.310234 
	C35.895012,33.157722 33.998672,33.529690 34.005676,36.604805 
	C34.047493,54.960392 34.030987,73.316116 34.030399,91.671791 
	C34.030025,103.298981 34.020992,114.926170 34.020069,126.553360 
	C34.019112,138.582062 34.023609,150.610748 34.025036,162.639450 
	C34.025814,169.211044 34.025177,175.782623 34.025177,182.933517 
	C40.132591,182.933517 46.890251,182.933517 54.147438,182.933517 
	C54.147438,139.626953 54.147438,96.932739 54.147438,53.978722 
	C89.598190,53.978722 124.549080,53.978722 160.499969,53.979252 
M34.039757,391.678345 
	C34.039757,417.379242 34.039757,443.080139 34.039757,468.411987 
	C83.776802,468.411987 132.964920,468.411987 182.570831,468.411987 
	C182.570831,461.839630 182.570831,455.517853 182.570831,448.830994 
	C139.593689,448.830994 96.994034,448.830994 53.846275,448.830994 
	C53.846275,405.423920 53.846275,362.376709 53.846275,319.170410 
	C46.687225,319.170410 40.079269,319.170410 34.039776,319.170410 
	C34.039776,343.137695 34.039776,366.937042 34.039757,391.678345 
M148.026962,265.482971 
	C148.262192,269.734039 147.846085,274.146515 148.852356,278.206482 
	C152.130920,291.434387 163.352142,300.833435 178.494293,300.174408 
	C184.444138,299.915436 187.146378,297.916046 187.091476,291.373413 
	C186.815033,258.428589 186.918945,225.479980 187.029007,192.533173 
	C187.046570,187.275482 186.264420,184.281265 178.635071,184.068939 
	C170.986664,183.856064 163.327454,183.996063 155.673294,184.038971 
	C149.941315,184.071106 148.035172,186.000961 148.034470,191.604843 
	C148.031464,215.899246 148.029388,240.193634 148.026962,265.482971 
M269.899200,393.968201 
	C277.779419,394.612885 285.246552,393.680573 291.610229,387.017151 
	C291.962891,389.793823 292.156555,391.318573 292.336121,392.732300 
	C299.026093,392.732300 305.286438,392.732300 311.663971,392.732300 
	C311.663971,372.083313 311.663971,351.718964 311.663971,331.360291 
	C304.959900,331.360291 298.582031,331.360291 292.285583,331.360291 
	C292.047729,333.448639 291.853333,335.155396 291.602814,337.354980 
	C290.550659,336.687256 289.944672,336.443176 289.525421,336.015839 
	C281.628693,327.967316 262.843994,329.680145 255.978851,337.264069 
	C249.591293,344.320435 247.250778,351.986877 246.768051,361.330933 
	C245.969833,376.781281 253.480530,390.862244 269.899200,393.968201 
M126.563095,317.880188 
	C117.757301,321.900635 113.668503,329.422363 114.293068,338.397644 
	C115.053085,349.319489 119.838036,355.795471 132.390900,359.108521 
	C137.857086,360.551208 143.279388,362.627106 148.238724,365.308533 
	C150.423172,366.489594 152.642929,369.947205 152.549164,372.278809 
	C152.470398,374.237793 149.375671,376.892059 147.058731,377.773865 
	C142.281738,379.591919 138.535812,377.347809 135.831589,372.675629 
	C134.960281,371.170258 133.258987,369.229309 131.821915,369.128143 
	C126.056679,368.722412 120.246140,368.960419 114.003258,368.960419 
	C114.365494,376.903229 116.804611,383.319611 122.921860,387.984375 
	C131.220978,394.312958 140.982803,394.779602 150.672073,393.766388 
	C156.590790,393.147430 162.198029,390.879456 166.586044,386.012970 
	C177.035660,374.424042 175.528687,358.272156 159.889633,351.046143 
	C152.958191,347.843475 145.664825,345.427368 138.712616,342.265289 
	C134.043655,340.141693 133.681686,335.078033 137.603455,331.904907 
	C140.830170,329.294128 147.577438,330.123749 150.091034,334.987549 
	C150.725037,336.214294 152.224564,337.763580 153.388748,337.817535 
	C159.490265,338.100098 165.611847,337.949615 171.612534,337.949615 
	C173.053360,329.730713 165.763748,319.833221 157.695663,317.017273 
	C147.459152,313.444489 137.302856,313.563812 126.563095,317.880188 
M234.348877,353.969360 
	C236.462158,353.969360 238.575439,353.969360 240.789825,353.969360 
	C235.907608,333.492310 221.257126,327.917450 203.417175,331.411743 
	C185.110657,334.997437 177.899841,348.568542 180.279556,368.434357 
	C182.363663,385.832489 195.488770,395.935089 216.766907,393.976471 
	C228.112503,392.932098 240.726990,380.377106 240.413513,370.021545 
	C234.954407,370.021545 229.466614,369.811523 224.011627,370.142395 
	C222.248154,370.249359 219.887329,371.335297 218.982773,372.736908 
	C216.315216,376.870178 212.293716,378.205811 208.425690,376.725342 
	C205.479446,375.597717 202.410065,372.503571 201.258530,369.556335 
	C199.829880,365.899902 200.192734,361.498108 200.019348,357.408203 
	C199.807968,352.422211 202.978806,349.510376 207.002136,347.584595 
	C210.878296,345.729248 215.163849,346.822144 217.165665,350.010040 
	C220.039246,354.586243 223.884048,353.907257 227.895721,353.956604 
	C229.727234,353.979156 231.559219,353.964142 234.348877,353.969360 
M170.861420,169.663712 
	C178.400253,167.281006 183.933746,163.436890 186.246658,154.934601 
	C188.606628,146.259201 184.118820,137.866226 177.585800,133.352722 
	C171.410400,129.086288 161.560806,129.168457 154.813477,134.805161 
	C148.268036,140.273193 146.228577,147.345871 148.945114,156.431274 
	C151.657608,165.503189 158.957474,169.964325 170.861420,169.663712 
z"/>
<path fill="#FEFEFE" opacity="1.000000" stroke="none" 
	d="
M245.716736,212.800873 
	C255.639420,196.996796 269.230652,187.800858 287.555511,184.879395 
	C318.186523,179.996002 346.573303,200.629684 352.862030,231.018112 
	C358.525330,258.384155 343.608612,285.604889 316.418427,296.188690 
	C286.737122,307.742157 252.633316,292.696503 241.896423,263.075684 
	C238.312653,253.188782 237.557632,243.429367 238.727448,233.005524 
	C239.552536,225.653732 242.645737,219.513275 245.716736,212.800873 
M281.089844,258.358459 
	C282.428070,256.786743 283.896393,255.662689 285.857971,257.397675 
	C291.545013,262.427795 297.868073,260.765961 304.027161,258.877625 
	C306.228394,258.202759 308.757599,256.785950 309.948975,254.940689 
	C315.297577,246.656494 316.132507,238.089111 308.352875,227.795914 
	C312.250580,224.757980 316.180115,221.695236 320.109650,218.632507 
	C320.024109,218.564819 319.938568,218.497131 319.853058,218.429459 
	C316.136932,221.916245 312.420807,225.403030 308.634521,228.955643 
	C308.022644,228.416458 307.585754,227.951324 307.074188,227.592667 
	C298.830078,221.812973 290.226501,222.869675 283.294830,228.312500 
	C277.421478,232.924316 275.789459,243.414352 280.176392,251.115494 
	C281.792206,253.951981 280.477417,255.690857 279.174286,257.983490 
	C278.357758,258.898621 277.541260,259.813751 276.724731,260.728912 
	C277.360718,261.329651 277.996704,261.930420 278.632690,262.531189 
	C279.277222,261.283875 279.921753,260.036591 281.089844,258.358459 
M271.514313,265.996643 
	C273.258820,265.037567 275.003326,264.078491 276.747864,263.119415 
	C276.345093,262.601715 275.942352,262.084015 275.539581,261.566315 
	C274.070831,262.840118 272.602081,264.113922 271.514313,265.996643 
M313.287598,258.978088 
	C313.170288,259.426758 313.021606,259.871613 312.965790,260.327820 
	C312.956207,260.405975 313.342712,260.532623 313.546234,260.636871 
	C313.676544,260.246429 313.806854,259.856018 313.287598,258.978088 
z"/>
<path fill="#FEFEFE" opacity="1.000000" stroke="none" 
	d="
M231.961761,261.000000 
	C231.964340,271.488831 231.976059,281.477692 231.966324,291.466522 
	C231.959656,298.310944 230.340408,299.970734 223.739319,299.971252 
	C216.081192,299.971832 208.423080,299.975098 200.764954,299.970978 
	C194.507126,299.967621 192.508896,297.853271 193.002563,291.845215 
	C193.097672,290.687531 193.020370,289.515594 193.020309,288.350220 
	C193.017853,238.239487 193.014191,188.128738 193.013519,138.018005 
	C193.013428,131.281296 196.340057,129.824890 203.128326,130.300293 
	C211.852859,130.911331 218.908737,134.020401 224.553604,140.203568 
	C229.071106,145.151871 231.990875,151.083374 231.984436,158.114258 
	C231.953125,192.242813 231.965103,226.371414 231.961761,261.000000 
z"/>
<path fill="#27B3B0" opacity="1.000000" stroke="none" 
	d="
M159.999969,53.978989 
	C124.549080,53.978722 89.598190,53.978722 54.147438,53.978722 
	C54.147438,96.932739 54.147438,139.626953 54.147438,182.933517 
	C46.890251,182.933517 40.132591,182.933517 34.025177,182.933517 
	C34.025177,175.782623 34.025814,169.211044 34.025036,162.639450 
	C34.023609,150.610748 34.019112,138.582062 34.020069,126.553360 
	C34.020992,114.926170 34.030025,103.298981 34.030399,91.671791 
	C34.030987,73.316116 34.047493,54.960392 34.005676,36.604805 
	C33.998672,33.529690 35.895012,33.157722 38.232960,33.310234 
	C41.019333,33.491993 43.799519,33.966526 46.582729,33.969303 
	C88.881302,34.011528 131.179947,33.997551 173.478561,33.995815 
	C182.949860,33.995426 182.950394,33.993843 182.956436,43.783638 
	C182.958374,46.935356 182.956726,50.087078 182.956726,53.979252 
	C175.331482,53.979252 167.915726,53.979252 159.999969,53.978989 
z"/>
<path fill="#26B3B1" opacity="1.000000" stroke="none" 
	d="
M34.039764,391.207367 
	C34.039776,366.937042 34.039776,343.137695 34.039776,319.170410 
	C40.079269,319.170410 46.687225,319.170410 53.846275,319.170410 
	C53.846275,362.376709 53.846275,405.423920 53.846275,448.830994 
	C96.994034,448.830994 139.593689,448.830994 182.570831,448.830994 
	C182.570831,455.517853 182.570831,461.839630 182.570831,468.411987 
	C132.964920,468.411987 83.776802,468.411987 34.039757,468.411987 
	C34.039757,443.080139 34.039757,417.379242 34.039764,391.207367 
z"/>
<path fill="#25B4B2" opacity="1.000000" stroke="none" 
	d="
M448.133240,329.011200 
	C447.766418,317.100952 447.277008,319.177795 457.616455,319.015503 
	C460.282043,318.973663 463.042084,318.613678 465.577271,319.193390 
	C466.902679,319.496429 468.757568,321.506378 468.780060,322.773651 
	C468.867432,327.696808 468.088348,332.629303 468.045593,337.561920 
	C467.922577,351.748444 468.002686,365.936707 468.000000,380.124298 
	C467.997955,390.978790 467.940979,401.833588 467.998444,412.687744 
	C468.090576,430.094574 468.220947,447.501465 468.424744,464.907288 
	C468.462463,468.127655 466.492035,468.018188 464.268463,468.014435 
	C449.221649,467.989105 434.174744,468.002411 419.127869,468.002136 
	C397.200104,468.001709 375.272339,468.000275 353.344574,467.999451 
	C343.963806,467.999084 334.582855,467.966034 325.202454,468.024811 
	C323.156097,468.037628 321.111816,468.379028 318.679871,468.605011 
	C318.679871,462.162781 318.679871,455.920502 318.679871,448.973785 
	C320.861664,448.973785 322.792480,448.973419 324.723328,448.973846 
	C363.887238,448.982513 403.051147,449.008575 442.214935,448.946014 
	C444.068481,448.943054 445.920746,448.153320 448.231750,447.043335 
	C448.779083,432.147675 448.878143,417.938721 448.921387,403.729584 
	C448.923096,403.167084 448.393311,402.602905 448.111206,402.039520 
	C448.077148,391.014069 448.043091,379.988647 448.328094,368.179626 
	C448.770599,356.338989 448.934723,345.282135 448.975311,334.224792 
	C448.981689,332.487976 448.427979,330.749115 448.133240,329.011200 
z"/>
<path fill="#25B4B2" opacity="1.000000" stroke="none" 
	d="
M319.024811,51.995140 
	C319.024811,46.111828 319.024811,40.228516 319.024811,34.325615 
	C368.981323,34.325615 418.530609,34.325615 468.127625,34.325615 
	C468.127625,45.493572 468.102173,56.334343 468.137268,67.174911 
	C468.157928,73.560219 468.304443,79.945038 468.341644,86.330391 
	C468.411316,98.281860 468.515869,110.233864 468.465393,122.185043 
	C468.429138,130.768082 467.976135,139.351776 468.049286,147.932266 
	C468.141357,158.733795 468.627350,169.531525 468.820038,180.333084 
	C468.849884,182.007446 468.548248,183.387344 465.814819,183.198639 
	C461.427338,182.895721 456.975647,183.692505 452.552643,183.672913 
	C449.696869,183.660263 447.519165,182.491608 448.028717,178.883240 
	C448.258850,177.253189 448.049072,175.561005 448.400146,173.136383 
	C448.829102,152.590744 448.896790,132.805756 448.979065,112.550110 
	C448.978394,101.711311 448.963165,91.343155 448.974182,80.509346 
	C448.986481,71.699409 448.972534,63.355141 448.854431,54.772820 
	C448.458099,54.361446 448.165985,54.188129 447.873840,54.014816 
	C447.873840,54.014816 447.433502,53.960918 446.899353,53.635010 
	C444.386963,53.201027 442.408813,52.999619 440.430573,52.998680 
	C402.570831,52.980667 364.711060,53.005779 326.851410,52.944256 
	C324.242035,52.940018 321.633667,52.325726 319.024811,51.995140 
z"/>
<path fill="#FEFEFE" opacity="1.000000" stroke="none" 
	d="
M148.026962,264.985504 
	C148.029388,240.193634 148.031464,215.899246 148.034470,191.604843 
	C148.035172,186.000961 149.941315,184.071106 155.673294,184.038971 
	C163.327454,183.996063 170.986664,183.856064 178.635071,184.068939 
	C186.264420,184.281265 187.046570,187.275482 187.029007,192.533173 
	C186.918945,225.479980 186.815033,258.428589 187.091476,291.373413 
	C187.146378,297.916046 184.444138,299.915436 178.494293,300.174408 
	C163.352142,300.833435 152.130920,291.434387 148.852356,278.206482 
	C147.846085,274.146515 148.262192,269.734039 148.026962,264.985504 
z"/>
<path fill="#28B3B0" opacity="1.000000" stroke="none" 
	d="
M269.454102,393.968781 
	C253.480530,390.862244 245.969833,376.781281 246.768051,361.330933 
	C247.250778,351.986877 249.591293,344.320435 255.978851,337.264069 
	C262.843994,329.680145 281.628693,327.967316 289.525421,336.015839 
	C289.944672,336.443176 290.550659,336.687256 291.602814,337.354980 
	C291.853333,335.155396 292.047729,333.448639 292.285583,331.360291 
	C298.582031,331.360291 304.959900,331.360291 311.663971,331.360291 
	C311.663971,351.718964 311.663971,372.083313 311.663971,392.732300 
	C305.286438,392.732300 299.026093,392.732300 292.336121,392.732300 
	C292.156555,391.318573 291.962891,389.793823 291.610229,387.017151 
	C285.246552,393.680573 277.779419,394.612885 269.454102,393.968781 
M273.919189,349.020325 
	C273.126343,349.612518 272.310669,350.176727 271.544403,350.801514 
	C266.421600,354.978607 265.851349,360.419617 266.932495,366.497803 
	C267.764374,371.174683 270.558350,374.189789 274.596832,375.958466 
	C279.279266,378.009186 285.838074,376.381744 288.515198,372.985779 
	C292.761719,367.599030 293.392639,358.364380 289.593903,353.203949 
	C287.201996,349.954620 281.677032,346.052185 273.919189,349.020325 
z"/>
<path fill="#29B3B0" opacity="1.000000" stroke="none" 
	d="
M126.869400,317.638794 
	C137.302856,313.563812 147.459152,313.444489 157.695663,317.017273 
	C165.763748,319.833221 173.053360,329.730713 171.612534,337.949615 
	C165.611847,337.949615 159.490265,338.100098 153.388748,337.817535 
	C152.224564,337.763580 150.725037,336.214294 150.091034,334.987549 
	C147.577438,330.123749 140.830170,329.294128 137.603455,331.904907 
	C133.681686,335.078033 134.043655,340.141693 138.712616,342.265289 
	C145.664825,345.427368 152.958191,347.843475 159.889633,351.046143 
	C175.528687,358.272156 177.035660,374.424042 166.586044,386.012970 
	C162.198029,390.879456 156.590790,393.147430 150.672073,393.766388 
	C140.982803,394.779602 131.220978,394.312958 122.921860,387.984375 
	C116.804611,383.319611 114.365494,376.903229 114.003258,368.960419 
	C120.246140,368.960419 126.056679,368.722412 131.821915,369.128143 
	C133.258987,369.229309 134.960281,371.170258 135.831589,372.675629 
	C138.535812,377.347809 142.281738,379.591919 147.058731,377.773865 
	C149.375671,376.892059 152.470398,374.237793 152.549164,372.278809 
	C152.642929,369.947205 150.423172,366.489594 148.238724,365.308533 
	C143.279388,362.627106 137.857086,360.551208 132.390900,359.108521 
	C119.838036,355.795471 115.053085,349.319489 114.293068,338.397644 
	C113.668503,329.422363 117.757301,321.900635 126.869400,317.638794 
z"/>
<path fill="#27B3B0" opacity="1.000000" stroke="none" 
	d="
M383.977112,392.830902 
	C379.654449,392.888275 375.321991,392.787140 371.012238,393.053284 
	C367.574280,393.265564 366.279053,391.371826 366.268799,388.525970 
	C366.232056,378.342010 366.350708,368.156586 366.505859,357.973175 
	C366.580170,353.095093 361.645630,347.655853 356.330688,346.991486 
	C351.836853,346.429749 345.908783,350.578339 345.086395,355.428558 
	C344.349396,359.775208 344.125854,364.239380 344.037933,368.658936 
	C343.879974,376.600647 343.993347,384.547729 343.993347,392.749329 
	C337.620880,392.749329 331.693146,392.749329 325.391785,392.749329 
	C325.391785,372.425812 325.391785,352.058685 325.391785,331.026520 
	C330.835236,331.026520 336.450806,330.715576 341.982819,331.257538 
	C343.274200,331.384033 344.281982,334.405487 345.660797,336.452026 
	C350.324738,332.427338 356.250854,330.976440 363.026062,330.874603 
	C376.567719,330.670990 386.028992,341.319489 385.998535,353.662567 
	C385.994019,355.492920 385.982330,357.323303 385.656250,359.927673 
	C385.229218,368.826843 385.193237,376.954071 384.967896,385.076019 
	C384.895996,387.668152 384.321594,390.246338 383.977112,392.830902 
z"/>
<path fill="#29B3B0" opacity="1.000000" stroke="none" 
	d="
M233.869934,353.967773 
	C231.559219,353.964142 229.727234,353.979156 227.895721,353.956604 
	C223.884048,353.907257 220.039246,354.586243 217.165665,350.010040 
	C215.163849,346.822144 210.878296,345.729248 207.002136,347.584595 
	C202.978806,349.510376 199.807968,352.422211 200.019348,357.408203 
	C200.192734,361.498108 199.829880,365.899902 201.258530,369.556335 
	C202.410065,372.503571 205.479446,375.597717 208.425690,376.725342 
	C212.293716,378.205811 216.315216,376.870178 218.982773,372.736908 
	C219.887329,371.335297 222.248154,370.249359 224.011627,370.142395 
	C229.466614,369.811523 234.954407,370.021545 240.413513,370.021545 
	C240.726990,380.377106 228.112503,392.932098 216.766907,393.976471 
	C195.488770,395.935089 182.363663,385.832489 180.279556,368.434357 
	C177.899841,348.568542 185.110657,334.997437 203.417175,331.411743 
	C221.257126,327.917450 235.907608,333.492310 240.789825,353.969360 
	C238.575439,353.969360 236.462158,353.969360 233.869934,353.967773 
z"/>
<path fill="#FEFEFE" opacity="1.000000" stroke="none" 
	d="
M170.460022,169.815918 
	C158.957474,169.964325 151.657608,165.503189 148.945114,156.431274 
	C146.228577,147.345871 148.268036,140.273193 154.813477,134.805161 
	C161.560806,129.168457 171.410400,129.086288 177.585800,133.352722 
	C184.118820,137.866226 188.606628,146.259201 186.246658,154.934601 
	C183.933746,163.436890 178.400253,167.281006 170.460022,169.815918 
z"/>
<path fill="#4EA6AA" opacity="1.000000" stroke="none" 
	d="
M319.077576,52.418610 
	C321.633667,52.325726 324.242035,52.940018 326.851410,52.944256 
	C364.711060,53.005779 402.570831,52.980667 440.430573,52.998680 
	C442.408813,52.999619 444.386963,53.201027 446.686218,53.573502 
	C405.336487,53.890182 363.665741,53.950161 321.994965,53.946445 
	C321.040039,53.946358 320.085205,53.226303 319.077576,52.418610 
z"/>
<path fill="#4EB1B1" opacity="1.000000" stroke="none" 
	d="
M448.964508,113.020752 
	C448.896790,132.805756 448.829102,152.590744 448.500488,172.705017 
	C448.169189,153.336578 448.098755,133.638885 448.306580,113.479340 
	C448.584839,113.017494 448.964508,113.020752 448.964508,113.020752 
z"/>
<path fill="#5CA6A0" opacity="1.000000" stroke="none" 
	d="
M448.074524,402.503906 
	C448.393311,402.602905 448.923096,403.167084 448.921387,403.729584 
	C448.878143,417.938721 448.779083,432.147675 448.427368,446.678162 
	C448.122528,432.322571 448.080200,417.645416 448.074524,402.503906 
z"/>
<path fill="#4F9999" opacity="1.000000" stroke="none" 
	d="
M448.059662,329.474335 
	C448.427979,330.749115 448.981689,332.487976 448.975311,334.224792 
	C448.934723,345.282135 448.770599,356.338989 448.376282,367.715088 
	C448.065643,355.335266 448.025879,342.636383 448.059662,329.474335 
z"/>
<path fill="#5CA6A0" opacity="1.000000" stroke="none" 
	d="
M384.409119,392.871277 
	C384.321594,390.246338 384.895996,387.668152 384.967896,385.076019 
	C385.193237,376.954071 385.229218,368.826843 385.595306,360.387756 
	C385.899750,370.087952 385.978241,380.102081 385.944275,390.115875 
	C385.941132,391.049072 385.225800,391.979797 384.409119,392.871277 
z"/>
<path fill="#4BB4A7" opacity="1.000000" stroke="none" 
	d="
M448.979065,112.550110 
	C448.964508,113.020752 448.584839,113.017494 448.394989,113.019485 
	C448.143799,102.658493 448.082489,92.295502 448.286041,81.462418 
	C448.550934,80.992310 448.947968,80.975006 448.947937,80.975006 
	C448.963165,91.343155 448.978394,101.711311 448.979065,112.550110 
z"/>
<path fill="#5CA6A0" opacity="1.000000" stroke="none" 
	d="
M448.974182,80.509346 
	C448.947968,80.975006 448.550934,80.992310 448.352325,80.998184 
	C448.117432,72.643097 448.081116,64.282120 448.305786,55.460518 
	C448.566742,54.999886 448.958588,55.010868 448.958588,55.010868 
	C448.972534,63.355141 448.986481,71.699409 448.974182,80.509346 
z"/>
<path fill="#4EA6AA" opacity="1.000000" stroke="none" 
	d="
M448.854431,54.772820 
	C448.958588,55.010868 448.566742,54.999886 448.370789,54.995308 
	C448.117340,54.830429 448.059845,54.670128 447.938110,54.262321 
	C448.165985,54.188129 448.458099,54.361446 448.854431,54.772820 
z"/>
<path fill="#000000" opacity="1.000000" stroke="none" 
	d="
M279.923157,257.922272 
	C280.477417,255.690857 281.792206,253.951981 280.176392,251.115494 
	C275.789459,243.414352 277.421478,232.924316 283.294830,228.312500 
	C290.226501,222.869675 298.830078,221.812973 307.074188,227.592667 
	C307.585754,227.951324 308.022644,228.416458 308.634521,228.955643 
	C312.420807,225.403030 316.136932,221.916245 319.853058,218.429459 
	C319.938568,218.497131 320.024109,218.564819 320.109650,218.632507 
	C316.180115,221.695236 312.250580,224.757980 308.352875,227.795914 
	C316.132507,238.089111 315.297577,246.656494 309.948975,254.940689 
	C308.757599,256.785950 306.228394,258.202759 304.027161,258.877625 
	C297.868073,260.765961 291.545013,262.427795 285.857971,257.397675 
	C283.896393,255.662689 282.428070,256.786743 280.676697,258.350128 
	C280.150116,258.201965 280.036652,258.062134 279.923157,257.922272 
z"/>
<path fill="#000000" opacity="1.000000" stroke="none" 
	d="
M271.323792,265.692200 
	C272.602081,264.113922 274.070831,262.840118 275.539581,261.566315 
	C275.942352,262.084015 276.345093,262.601715 276.747864,263.119415 
	C275.003326,264.078491 273.258820,265.037567 271.323792,265.692200 
z"/>
<path fill="#000000" opacity="1.000000" stroke="none" 
	d="
M280.414917,258.565552 
	C279.921753,260.036591 279.277222,261.283875 278.632690,262.531189 
	C277.996704,261.930420 277.360718,261.329651 276.724731,260.728912 
	C277.541260,259.813751 278.357758,258.898621 279.548706,257.952881 
	C280.036652,258.062134 280.150116,258.201965 280.414917,258.565552 
z"/>
<path fill="#000000" opacity="1.000000" stroke="none" 
	d="
M313.612396,259.221832 
	C313.806854,259.856018 313.676544,260.246429 313.546234,260.636871 
	C313.342712,260.532623 312.956207,260.405975 312.965790,260.327820 
	C313.021606,259.871613 313.170288,259.426758 313.612396,259.221832 
z"/>
<path fill="#000000" opacity="1.000000" stroke="none" 
	d="
M274.307373,348.913757 
	C281.677032,346.052185 287.201996,349.954620 289.593903,353.203949 
	C293.392639,358.364380 292.761719,367.599030 288.515198,372.985779 
	C285.838074,376.381744 279.279266,378.009186 274.596832,375.958466 
	C270.558350,374.189789 267.764374,371.174683 266.932495,366.497803 
	C265.851349,360.419617 266.421600,354.978607 271.544403,350.801514 
	C272.310669,350.176727 273.126343,349.612518 274.307373,348.913757 
z"/>
</svg>