<?xml version="1.0" encoding="UTF-8" standalone="no"?>
<!-- Created with Inkscape (http://www.inkscape.org/) -->

<svg
   width="1291.5928mm"
   height="256mm"
   viewBox="0 0 1291.5928 256"
   version="1.1"
   id="svg5"
   xmlns:xlink="http://www.w3.org/1999/xlink"
   xmlns="http://www.w3.org/2000/svg"
   xmlns:svg="http://www.w3.org/2000/svg">
  <defs
     id="defs2">
    <linearGradient
       id="linearGradient10701">
      <stop
         style="stop-color:#000000;stop-opacity:1;"
         offset="0"
         id="stop10697" />
      <stop
         style="stop-color:#000000;stop-opacity:0;"
         offset="1"
         id="stop10699" />
    </linearGradient>
    <linearGradient
       xlink:href="#linearGradient10701"
       id="linearGradient10703"
       x1="0"
       y1="498.7793"
       x2="-1747.6211"
       y2="498.7793"
       gradientUnits="userSpaceOnUse"
       gradientTransform="translate(1935.1181)" />
  </defs>
  <g
     id="layer1"
     transform="translate(512)">
    <g
       id="g1284">
      <path
         style="color:#000000;fill:#000000;fill-opacity:0;stroke-width:7.6977;stroke-linecap:round;-inkscape-stroke:none"
         d="m 128,8.7012036 c 38.50606,0 69.50554,30.9994714 69.50554,69.5055404 v 99.586506 c 0,38.50607 -30.99948,69.50554 -69.50554,69.50554 -38.506077,0 -69.505548,-30.99947 -69.505548,-69.50554 V 78.206744 C 58.494452,39.700675 89.493923,8.7012036 128,8.7012036 Z"
         id="path9010" />
      <g
         id="g9873"
         transform="rotate(90,128,128)">
        <rect
           style="fill:none;fill-opacity:1;stroke:none;stroke-width:7.9375;stroke-linecap:round;stroke-miterlimit:4;stroke-dasharray:none;stroke-opacity:1;stop-color:#000000"
           id="rect9733"
           width="256"
           height="256"
           x="0"
           y="0"
           rx="2.875227"
           ry="2.875227" />
      </g>
      <path
         id="rect1013"
         style="color:#000000;fill:#000000;stroke-width:3.77953;stroke-linecap:round;-inkscape-stroke:none;fill-opacity:0.22556391"
         d="m 76.867188,19.347656 c -31.625115,0 -57.519532,25.894417 -57.519532,57.519532 V 237.04297 H 47.28125 V 76.867188 c 0,-16.632795 12.953143,-29.585938 29.585938,-29.585938 H 237.04297 V 19.347656 Z m 653.648432,0 V 47.28125 h 160.17579 c 16.63279,0 29.58593,12.953143 29.58593,29.585938 V 237.04297 h 27.9336 V 76.867188 c 0,-31.625115 -25.89441,-57.519532 -57.51953,-57.519532 z M 19.347656,730.51562 v 160.17579 c 0,31.62512 25.894417,57.51953 57.519532,57.51953 H 237.04297 v -27.9336 H 76.867188 c -16.632795,0 -29.585938,-12.95314 -29.585938,-29.58593 V 730.51562 Z m 900.929684,0 v 160.17579 c 0,16.63279 -12.95314,29.58593 -29.58593,29.58593 H 730.51562 v 27.9336 h 160.17579 c 31.62512,0 57.51953,-25.89441 57.51953,-57.51953 V 730.51562 Z"
         transform="scale(0.26458333)" />
    </g>
    <use
       x="0"
       y="0"
       xlink:href="#g1284"
       id="use1286"
       transform="translate(256)"
       width="100%"
       height="100%"
       style="opacity:0.568562" />
    <g
       aria-label="+1"
       id="text3325"
       style="font-size:91.6713px;line-height:1.25;font-family:Impact;-inkscape-font-specification:'Impact, Normal';opacity:0.568562;stroke-width:2.98928"
       transform="matrix(0.56005228,0,0,0.56005228,166.37039,152.15952)">
      <path
         d="M 345.43806,55.402077 H 361.5074 V 39.287981 h 10.92177 v 16.114096 h 16.15886 V 66.323853 H 372.42917 V 82.348427 H 361.5074 V 66.323853 h -16.06934 z"
         id="path11000" />
      <path
         d="m 422.56192,24.561487 v 72.468672 h -18.0836 V 58.177283 q 0,-8.41514 -0.40285,-10.116072 -0.40285,-1.700932 -2.23807,-2.551398 -1.79046,-0.895228 -8.05705,-0.895228 h -1.79045 v -8.459901 q 13.11508,-2.819966 19.91881,-11.593197 z"
         id="path11002" />
    </g>
    <use
       x="0"
       y="0"
       xlink:href="#g1284"
       id="use1288"
       transform="translate(512)"
       width="100%"
       height="100%"
       style="opacity:0.329431" />
    <g
       aria-label="+2"
       id="text4681"
       style="font-size:91.6713px;line-height:1.25;font-family:Impact;-inkscape-font-specification:'Impact, Normal';opacity:0.329431;stroke-width:2.98928"
       transform="matrix(0.56005228,0,0,0.56005228,270.52378,152.15952)">
      <path
         d="m 595.08195,56.095887 h 16.06934 V 39.98179 h 10.92177 v 16.114097 h 16.15886 V 67.017663 H 622.07306 V 83.042236 H 611.15129 V 67.017663 h -16.06934 z"
         id="path11023" />
      <path
         d="M 683.30663,85.369828 V 97.723969 H 643.51376 V 87.38409 q 17.68075,-28.91585 20.99309,-35.764341 3.3571,-6.893252 3.3571,-10.742731 0,-2.954251 -1.02951,-4.386615 -0.98475,-1.477126 -3.04377,-1.477126 -2.05903,0 -3.08854,1.61141 -0.98475,1.61141 -0.98475,6.400877 v 6.893252 h -16.20362 v -2.640921 q 0,-6.087547 0.62666,-9.578935 0.62666,-3.536149 3.08854,-6.938013 2.46187,-3.401865 6.40088,-5.147559 3.939,-1.745694 9.44465,-1.745694 10.78749,0 16.29314,5.371366 5.55041,5.326604 5.55041,13.517936 0,6.221832 -3.1333,13.159845 -3.08853,6.938014 -18.3074,29.452987 z"
         id="path11025" />
    </g>
    <use
       x="0"
       y="0"
       xlink:href="#g1284"
       id="use1290"
       transform="translate(-256)"
       width="100%"
       height="100%"
       style="opacity:0.568562" />
    <g
       aria-label="-1"
       id="text7817"
       style="font-size:91.6713px;line-height:1.25;font-family:Impact;-inkscape-font-specification:'Impact, Normal';opacity:0.568562;stroke-width:2.98928"
       transform="matrix(0.56005228,0,0,0.56005228,-61.743946,152.15952)">
      <path
         d="m -132.47613,61.086772 v 12.488425 h -23.7683 V 61.086772 Z"
         id="path10977" />
      <path
         d="M -99.755565,24.561487 V 97.030159 H -117.83916 V 58.177283 q 0,-8.41514 -0.40285,-10.116072 -0.40286,-1.700932 -2.23807,-2.551398 -1.79046,-0.895228 -8.05705,-0.895228 h -1.79046 v -8.459901 q 13.11509,-2.819966 19.91882,-11.593197 z"
         id="path10979" />
    </g>
    <path
       id="path10033"
       style="color:#000000;fill:url(#linearGradient10703);fill-opacity:1;stroke-width:3.77953;-inkscape-stroke:none"
       d="M 483.7793 411.41016 A 72.36889 72.36889 0 0 0 413.01562 468.7793 L 77.847656 468.7793 L 77.847656 498.7793 L 413.01562 498.7793 A 72.36889 72.36889 0 0 0 483.7793 556.14844 A 72.36889 72.36889 0 0 0 554.54297 498.7793 L 1380.5742 498.7793 A 72.36889 72.36889 0 0 0 1451.3379 556.14844 A 72.36889 72.36889 0 0 0 1522.1016 498.7793 L 1935.1172 498.7793 L 1935.1172 468.7793 L 1522.1348 468.7793 A 72.36889 72.36889 0 0 0 1451.3379 411.41016 A 72.36889 72.36889 0 0 0 1380.5742 468.7793 L 554.57422 468.7793 A 72.36889 72.36889 0 0 0 483.7793 411.41016 z M 3386.457 411.41016 A 72.36889 72.36889 0 0 0 3315.6934 468.7793 L 2893.3457 468.7793 L 2893.3457 498.7793 L 3315.6934 498.7793 A 72.36889 72.36889 0 0 0 3386.457 556.14844 A 72.36889 72.36889 0 0 0 3457.2207 498.7793 L 4283.252 498.7793 A 72.36889 72.36889 0 0 0 4354.0156 556.14844 A 72.36889 72.36889 0 0 0 4424.7793 498.7793 L 4669.584 498.7793 L 4669.584 533.33203 L 4775.5957 508.55469 L 4881.6094 483.7793 L 4775.5957 459.00391 L 4669.584 434.22852 L 4669.584 468.7793 L 4424.8105 468.7793 A 72.36889 72.36889 0 0 0 4354.0156 411.41016 A 72.36889 72.36889 0 0 0 4283.252 468.7793 L 3457.252 468.7793 A 72.36889 72.36889 0 0 0 3386.457 411.41016 z "
       transform="matrix(0.26458333,0,0,0.26458333,-512,0)" />
    <use
       x="0"
       y="0"
       xlink:href="#g1284"
       id="use11150"
       transform="translate(-512)"
       width="100%"
       height="100%"
       style="opacity:0.311037" />
    <g
       aria-label="+2"
       id="g11156"
       style="font-size:91.6713px;line-height:1.25;font-family:Impact;-inkscape-font-specification:'Impact, Normal';opacity:0.311037;stroke-width:2.98928"
       transform="matrix(0.56005228,0,0,0.56005228,-748.48974,152.15952)">
      <path
         d="M 683.30663,85.369828 V 97.723969 H 643.51376 V 87.38409 q 17.68075,-28.91585 20.99309,-35.764341 3.3571,-6.893252 3.3571,-10.742731 0,-2.954251 -1.02951,-4.386615 -0.98475,-1.477126 -3.04377,-1.477126 -2.05903,0 -3.08854,1.61141 -0.98475,1.61141 -0.98475,6.400877 v 6.893252 h -16.20362 v -2.640921 q 0,-6.087547 0.62666,-9.578935 0.62666,-3.536149 3.08854,-6.938013 2.46187,-3.401865 6.40088,-5.147559 3.939,-1.745694 9.44465,-1.745694 10.78749,0 16.29314,5.371366 5.55041,5.326604 5.55041,13.517936 0,6.221832 -3.1333,13.159845 -3.08853,6.938014 -18.3074,29.452987 z"
         id="path11154" />
      <path
         d="m 636.64091,61.086772 v 12.488425 h -23.7683 V 61.086772 Z"
         id="path10977-4"
         style="font-size:91.6713px;line-height:1.25;font-family:Impact;-inkscape-font-specification:'Impact, Normal';opacity:1;stroke-width:2.98928" />
    </g>
  </g>
</svg>
