<?xml version="1.0" encoding="UTF-8"?><svg id="Calque_1" xmlns="http://www.w3.org/2000/svg" viewBox="0 0 146.23 88.45"><defs><style>.cls-1{fill:#fff;}</style></defs><path class="cls-1" d="M121.83,41.83c-1.04-1.44-2.29-2.74-3.74-3.87,0-.41,0-.82-.01-1.24-.01-.88-.02-1.75,0-2.59.03-1.35-.33-2.39-1.14-3.27-.39-.43-.75-.94-1.1-1.43-.17-.23-.31-.44-.46-.65-.75-1-1.42-1.82-2.26-2.58-1.99-1.78-3.98-3-6.07-3.75-3.57-1.27-7.79-2.7-12.08-3.75-1.16-.28-2.34-.59-3.47-.9-1.82-.49-3.68-.98-5.54-1.36-2.82-.57-5.67-1.08-8.41-1.57-2.74-.49-5.58-1-8.38-1.56-.21-.04-.42-.09-.63-.13-.59-.13-1.17-.25-1.77-.31h-.04c-.05-.01-2.69-.31-5.17-.31-.36,0-.71,0-1.06.02h-.08c-.14,0-.29,0-.44,0-2.34,0-4.86.14-7.92.44-2.42.24-5.6.68-8.64,2-2.04.87-3.59,2.25-4.61,4.09-.81,1.46-1.19,3.08-1.53,4.76-.61,3.02-.73,5.42-.68,8.4-2.13.49-4.96,1.27-7.36,2.41-2.77,1.31-4.68,3.92-5.12,6.97-.86,6.05-1.7,20.35,8.99,22.45h.05s.05.01.05.01c.02,0,.53.03,1.33.03,2.26,0,6.24-.2,9.21-1.44.51,9.1,4.02,14.69,10.18,16.22v.09s.74.09.74.09c.02,0,.07,0,.14.02l.53.1v-.05c.82.07,2.25.17,3.96.17,3.43,0,7.99-.41,10.86-2.3l.04.05.58-.48s.05-.04.07-.07l.02-.02.57-.48-.04-.04c1.65-1.74,2.71-4.13,3.22-7.28.1.06.2.11.3.17.06.03.14.09.21.16.21.17.52.44,1,.49.68.08,1.36.18,2.04.27,1.29.18,2.63.36,3.96.46,2.66.2,5.79.41,8.89.41,2.76,0,5.24-.16,7.58-.48,3.73-.52,8.56-1.46,12.9-4.21.71.32,2.01.76,3.74.76.51,0,1.02-.04,1.52-.12,1.08-.17,3.16-.7,4.97-2.37,0,0,0,0,0,0,0,0,.73-.67,1.33-1.55,1.71-2.52,4.73-12.56-1.22-20.87ZM123.46,53.98c.12-3.47-.62-7.5-3.16-11.05-.21-.29-.43-.58-.66-.86.23.28.45.56.66.86,2.54,3.54,3.28,7.58,3.16,11.05ZM110.65,64.45c-.36.24-.72.43-1.1.61.38-.18.74-.37,1.1-.61.08-.05.17-.08.25-.1l.5-.26s.67-.35,1.49-1.01c.95-.77,2.13-1.97,2.78-3.56.28-.68.46-1.44.48-2.26.01-.45.02-.98.03-1.59,0,.61-.02,1.14-.03,1.59-.02.82-.2,1.58-.48,2.26-.65,1.59-1.82,2.79-2.78,3.56-.82.66-1.47,1.01-1.49,1.01l-.5.26c-.09.02-.17.05-.25.1ZM69.59,75.1c-.27.22-.57.42-.9.61.32-.18.63-.38.9-.61.56-.51,1.05-1.11,1.47-1.8-.42.7-.91,1.3-1.47,1.8ZM53.09,76.68h0v-.06s0,.06,0,.06ZM43.76,60.61s0,0,0,0c0,0,0,0,0,0,.07-1.45.45-7.3,2.22-11.24.59-1.31,1.34-2.41,2.28-3.07-.94.65-1.69,1.75-2.28,3.07-1.77,3.94-2.15,9.79-2.22,11.24ZM31.76,61.76h0s0-.04,0-.04v.04ZM26.7,42.01c.2-1.4.85-2.7,1.85-3.69,1.02.36,1.92.85,2.69,1.45,3.98,3.1,5.1,9.08,4.85,13.26-.21,3.58-1.41,6.44-3.12,7.47-.36.21-.76.37-1.2.45-6.58-2.94-5.75-14.19-5.07-18.94ZM33.36,61.15c1.95-1.18,3.25-4.19,3.48-8.07.06-1.09.04-2.3-.1-3.55-.11-.94-.28-1.9-.52-2.85-.74-2.86-2.15-5.65-4.52-7.49-.96-.75-2.09-1.32-3.34-1.71h0c1.25.39,2.38.96,3.34,1.71,2.37,1.85,3.78,4.63,4.52,7.49.25.95.42,1.92.52,2.85.14,1.25.17,2.46.1,3.55-.23,3.88-1.53,6.89-3.48,8.07-.24.14-.49.26-.76.36.27-.1.52-.22.76-.36ZM87.36,18.66c1.68.39,3.29.77,4.84,1.16-1.55-.39-3.16-.77-4.84-1.16-1.73-.4-3.49-.76-5.25-1.09s-3.51-.64-5.24-.94c1.73.3,3.48.61,5.24.94s3.52.69,5.25,1.09ZM107.39,24.79c-.71-.34-1.47-.67-2.3-.99-1.36-.53-2.72-1.02-4.12-1.47,1.39.46,2.76.95,4.12,1.47.83.32,1.59.65,2.3.99ZM111.77,27.6c.24.21.47.43.7.65.46.46.89.96,1.29,1.48-.4-.51-.83-1.01-1.29-1.48-.22-.22-.46-.44-.7-.65-.48-.42-.99-.82-1.55-1.2.56.38,1.07.78,1.55,1.2ZM114.44,64.82c-.06,0-.12-.02-.18-.02.06,0,.12.02.18.02ZM114.62,64.08c1.57-1.41,3.31-3.66,3.4-6.77.08-2.72.1-8.07.1-15.81.57.58,1.08,1.2,1.57,1.87,4.86,6.78,2.84,15.4,1.18,17.86-.38.56-.88,1.04-.94,1.09-1.29,1.2-2.8,1.58-3.58,1.7-.38.06-.76.09-1.14.09-.21,0-.4,0-.59-.02ZM75.75,66.31c-.26-.24-.53-.48-.85-.7.1-2.12.02-4.49-.25-7.21v-.03s0-.03,0-.03c-.11-.64-2.84-15.78-12.77-17.05h-.08s-.11-.03-.11-.03l-.11.02h-.08c-.27.06-6.59,1.15-11.34,3.39-.1.05-.2.1-.3.15-.39-1.56-1.15-4.08-2.45-6.48-2.12-3.92-4.87-6.13-8.17-6.55h-.08s-.02-.01-.02-.01c-.03-3.06.17-5.84,1.09-9.09.19-.66.41-1.4.74-2.11,3.24,4.91,13.72,16.37,41.79,19.23.31.04,2.56.35,5.83.52-4.08,1.6-6.98,5.57-6.98,10.21,0,6.05,4.93,10.98,10.98,10.98s10.98-4.93,10.98-10.98c0-4.6-2.84-8.54-6.86-10.17,6.32-.29,13.67-1.48,18.8-4.93v1.88h0v.68c-.7-.49-1.37-.62-1.89-.62-2.85,0-4.99,4.02-4.99,9.34s2.15,9.34,4.99,9.34c.5,0,1.15-.12,1.81-.57-.01.67-.02,1.24-.04,1.73-.12,3.92-4.3,6.17-4.34,6.19l-.43.22c-.15.04-.28.1-.39.18-.22.15-.46.29-.75.43l-.24.11c-4.29,2.01-9.19,3.1-15,3.34-1.48.06-2.96.1-4.41.1-2.53,0-5.04-.1-7.46-.29-1.34-.11-2.71-.28-4.03-.46-.67-.09-1.35-.18-2.02-.26-.03-.02-.05-.04-.08-.06l-.07-.05c-.13-.1-.28-.24-.43-.37ZM38.72,53.19c.29-4.82-1.08-11.76-5.86-15.49-.5-.39-1.03-.74-1.6-1.05,3.19-1.32,7-2.06,7.84-2.21,5.42.87,7.73,9,8.33,11.57-3.42,2.93-4.21,11.02-4.39,14.13-2.08.96-5.13,1.25-7.19,1.33,1.62-1.84,2.67-4.78,2.88-8.29ZM45.9,39.56c-.36-.7-.77-1.39-1.23-2.04.46.65.87,1.34,1.23,2.04ZM38.98,32.54h.08s0-.01,0-.01h-.08ZM39.08,33.67c1.99.28,3.59,1.42,4.86,2.92-1.27-1.5-2.87-2.64-4.86-2.92h0ZM46.85,41.65c.41,1.03.72,2,.95,2.81-.23-.81-.54-1.78-.95-2.81ZM57.89,72.3c.36-.83.65-1.76.88-2.77-.22,1.01-.52,1.94-.88,2.77ZM52.16,49.07c-.95-.6-1.99-1.07-3.14-1.42h0c1.16.35,2.2.82,3.14,1.42ZM61.62,42.04h.08s0-.01,0-.01h-.08ZM46.82,53.12c.25-1.77,1.08-3.4,2.37-4.63,1.3.44,2.43,1.03,3.42,1.81,4.79,3.73,6.14,10.9,5.84,15.91-.26,4.39-1.69,7.78-3.82,9.07-.47.28-.99.48-1.56.58-8.05-3.47-7.06-17.02-6.25-22.74ZM55.75,77.3c-.07,0-.12,0-.18-.01.06,0,.12,0,.18.01ZM55.28,77.26s-.08,0-.12-.01c.03,0,.08,0,.12.01ZM56.34,77.34c-.07,0-.12,0-.19-.01.06,0,.12,0,.19.01ZM57.18,77.39s-.09,0-.13,0c.04,0,.09,0,.13,0ZM61.08,66.37c.33-5.64-1.26-13.78-6.85-18.14-.72-.57-1.49-1.05-2.32-1.46,3.91-1.71,8.84-2.66,9.83-2.84,7.61,1.18,10.15,13.95,10.31,14.8.79,8.11-.17,13.29-2.96,15.81-2.13,1.77-6.51,2.14-9.8,2.14-.78,0-1.49-.02-2.11-.05,2.21-2.07,3.64-5.77,3.91-10.27ZM72.61,69c-.27,1.37-.65,2.55-1.15,3.57.5-1.02.89-2.2,1.15-3.57ZM66.18,14.77s-.02,0-.02,0c0,0,0,0,0,0-.69-.14-2.1-.25-3.36-.31,1.26.07,2.67.17,3.36.31.01,0,.02,0,.03,0ZM66,15.51l.07.02h.08s.04,0,.04,0c1.48.17,2.98.45,4.42.73.46.09.92.17,1.38.26,1.58.3,3.16.57,4.75.85,3.44.6,6.99,1.23,10.45,2.03,6.69,1.55,12.25,3.01,17.63,5.1,3.21,1.25,5.4,2.58,7.12,4.29.88.88,1.64,1.93,2.37,2.94.19.26.38.52.58.79-5.38,4.25-14.76,5.16-21.8,5.16-5.61,0-9.96-.58-10.01-.59-28.86-2.94-38.21-15.29-40.34-18.87.02-.02.05-.04.07-.05,1.11-.85,2.47-1.22,3.99-1.58,4.6-1.09,9.22-1.35,13.53-1.48.06.01.13.02.2.02.88,0,4.32.15,5.47.38ZM113.62,39.89c.37,0,1,.48,1.59,1.82l.1.23c.06.16.12.32.18.51,0,.57,0,1.1,0,1.64-.06.31-.17.59-.32.79-.17.21-.38.34-.61.34-.54,0-.97-.69-.97-1.54s.4-1.47.91-1.53c-.1-.07-.21-.12-.3-.14h-.04c-.91,0-1.65,2.07-1.65,4.63s.74,4.63,1.65,4.63c.55,0,1.03-.75,1.33-1.9,0,.58,0,1.13,0,1.66-.57,1.73-1.36,2.53-1.85,2.53-.84,0-2.48-2.41-2.48-6.83s1.61-6.83,2.48-6.83ZM109.38,46.73c0,2.41.47,4.56,1.23,6.1-.76-1.55-1.23-3.69-1.23-6.1s.47-4.56,1.23-6.1c-.76,1.55-1.23,3.69-1.23,6.1ZM115.69,52.47c.2-.39.37-.83.53-1.31.01-2.4.02-5.34.02-8.84,0,3.5,0,6.44-.02,8.84-.15.49-.33.93-.53,1.31-.29.58-.63,1.04-.98,1.36.35-.32.68-.78.98-1.36ZM116.24,42.32c-.11-.32-.21-.61-.34-.9l.34-.15-.34.15c.12.29.23.58.34.9ZM92.59,42.87c4.23,0,7.68,3.45,7.68,7.68s-3.45,7.68-7.68,7.68-7.68-3.45-7.68-7.68,3.45-7.68,7.68-7.68ZM93.24,38.42c.31,0,.62,0,.93,0-.31,0-.63,0-.93,0ZM74.83,37.95c2.49.45,5.16.83,8,1.12.1.01.45.06,1,.12.28.03.6.07.98.1-.37-.04-.7-.07-.98-.1-.55-.06-.9-.11-1-.12-2.85-.29-5.51-.67-8-1.12-2.49-.45-4.81-.98-6.97-1.56,2.16.58,4.48,1.11,6.97,1.56ZM83.07,37.84s0,0,0,0c0,0,0,0,0,0ZM83.25,37.86s.07,0,.11.01c-.04,0-.08,0-.11-.01ZM83.56,37.9s.09.01.14.02c-.05,0-.1-.01-.14-.02ZM83.96,37.94c.06,0,.12.01.19.02-.07,0-.13-.01-.19-.02ZM84.5,38c.06,0,.12.01.19.02-.07,0-.12-.01-.19-.02ZM86.02,38.14c.07,0,.14.01.21.02-.07,0-.14-.01-.21-.02ZM87.56,39.52c-.54-.04-1.04-.07-1.5-.11.46.04.96.08,1.5.11ZM86.79,38.2c.1,0,.2.01.31.02-.1,0-.21-.01-.31-.02ZM87.66,38.25c.11,0,.22.01.34.02-.11,0-.23-.01-.34-.02ZM91.1,39.68h0c-.96-.02-1.87-.06-2.7-.11.84.05,1.74.09,2.7.11ZM88.59,38.31c.12,0,.24.01.36.02-.12,0-.24-.01-.36-.02ZM89.62,38.35c.11,0,.22,0,.34.01-.11,0-.22,0-.34-.01ZM90.92,38.4s.06,0,.1,0c-.03,0-.06,0-.1,0ZM92.13,38.42c.11,0,.22,0,.32,0-.11,0-.22,0-.32,0ZM94.6,38.41c.46,0,.93-.02,1.4-.04-.47.02-.94.03-1.4.04ZM96.12,38.37c.43-.02.87-.04,1.3-.06-.44.03-.87.05-1.3.06ZM97.9,38.27c.33-.02.66-.04.99-.07-.33.03-.66.05-.99.07ZM99.43,38.16c.31-.03.62-.06.92-.09-.31.03-.62.06-.92.09ZM100.94,38c.3-.03.61-.07.91-.11-.3.04-.61.08-.91.11ZM102.43,37.81c.31-.04.62-.09.93-.14-.31.05-.62.1-.93.14ZM103.91,37.58c.34-.06.68-.13,1.02-.19-.34.07-.68.13-1.02.19ZM105.37,37.3c.49-.1.97-.21,1.44-.33-.48.12-.96.23-1.44.33ZM106.85,36.96c.46-.12.91-.24,1.36-.37-.45.13-.9.26-1.36.37ZM108.64,36.45c.31-.1.63-.2.93-.31-.31.11-.62.21-.93.31ZM110.07,35.96c.28-.1.55-.21.82-.32-.27.11-.54.22-.82.32ZM111.4,35.42c.26-.11.51-.23.76-.35-.25.12-.5.24-.76.35ZM113.82,34.16c.25-.16.5-.32.74-.49-.24.17-.49.33-.74.49ZM112.65,34.82c.25-.13.49-.26.73-.4-.24.14-.48.27-.73.4ZM60.07,33.79c-1.16-.47-2.26-.95-3.3-1.45,1.04.5,2.14.98,3.3,1.45ZM116.26,38.07v-4.11s0,0,0,0v4.11ZM114.91,33.43c.35-.26.69-.52,1.01-.8-.34-.44-.68-.89-1-1.34-.19-.26-.38-.52-.57-.78.19.26.38.52.57.78.32.44.66.89,1,1.34-.32.28-.66.55-1.01.8ZM66.22,14.78s-.02,0-.04,0c.01,0,.02,0,.04,0,.76.08,1.52.2,2.28.33-.76-.13-1.52-.24-2.28-.33ZM66.26,13.57c.14.01.25.03.33.04-.08,0-.2-.02-.33-.04ZM62.45,13.32c.27,0,.53.02.79.03-.26-.01-.53-.02-.79-.03ZM63.52,13.37c.19,0,.38.02.56.03-.18-.01-.37-.02-.56-.03ZM64.39,13.42c.16.01.32.02.47.03-.15-.01-.31-.02-.47-.03ZM65.14,13.47c.14.01.28.02.41.03-.13-.01-.26-.02-.41-.03ZM65.78,13.53c.13.01.25.02.36.03-.11-.01-.23-.02-.36-.03ZM61.61,14.41c.24,0,.5.02.77.03-.27-.01-.53-.02-.77-.03ZM33.98,62.25c-.12,0-.22,0-.31,0,.09,0,.19,0,.31,0ZM34.38,62.25c-.11,0-.2,0-.29,0,.09,0,.18,0,.29,0ZM35.49,62.23c-.05,0-.11,0-.16,0,.05,0,.11,0,.16,0ZM43.18,60.89c-.07.03-.14.06-.21.08.07-.03.14-.06.21-.08ZM42.55,61.14c-.08.03-.17.06-.25.09.09-.03.17-.06.25-.09ZM41.89,61.36c-.09.03-.18.05-.27.08.09-.03.18-.05.27-.08ZM41.19,61.55c-.09.02-.18.04-.27.07.09-.02.18-.04.27-.07ZM40.47,61.71c-.08.02-.17.04-.25.05.08-.02.17-.03.25-.05ZM39.68,61.85c-.06,0-.12.02-.18.03.06,0,.12-.02.18-.03ZM38.8,61.98c-.06,0-.11.01-.17.02.06,0,.11-.01.17-.02ZM38.09,62.07c-.08,0-.16.02-.25.02.08,0,.16-.02.25-.02ZM37.41,62.13c-.09,0-.17.01-.26.02.09,0,.17-.01.26-.02ZM36.74,62.18c-.08,0-.17.01-.25.01.08,0,.17,0,.25-.01ZM36.11,62.21c-.08,0-.15,0-.22,0,.07,0,.15,0,.22,0ZM58.76,77.43c.11,0,.22,0,.33,0-.11,0-.22,0-.33,0ZM57.84,77.41c.1,0,.19,0,.29,0-.1,0-.2,0-.29,0ZM68.36,75.87c-.23.12-.47.23-.72.33.25-.1.49-.21.72-.33ZM67.22,76.36c-.25.09-.51.17-.77.25.26-.08.52-.16.77-.25ZM66.02,76.73c-.3.08-.6.14-.91.2.31-.06.61-.13.91-.2ZM64.76,77c-.43.08-.86.14-1.3.2.44-.05.87-.12,1.3-.2ZM63.23,77.22c-.36.04-.73.08-1.09.1.36-.03.73-.06,1.09-.1ZM61.69,77.36c-.29.02-.58.03-.86.04.28-.01.57-.03.86-.04ZM60.36,77.42c-.28,0-.55.01-.82.01.27,0,.54,0,.82-.01ZM85.75,68.46c-1.15-.05-2.29-.11-3.44-.2,1.14.09,2.29.16,3.44.2ZM89.23,68.54c-.8,0-1.61-.02-2.41-.05.8.02,1.61.04,2.41.05ZM89.42,69.89c-.3,0-.59-.01-.89-.02.3,0,.59.01.89.02ZM87.23,69.82c-.27-.01-.55-.02-.82-.04.27.01.55.02.82.04ZM84.93,69.7c-.21-.01-.42-.02-.63-.04.21.01.42.02.63.04ZM94.27,68.46c-1.31.06-2.62.08-3.93.08,1.31,0,2.62-.03,3.93-.08ZM113.67,64.7c-.06-.01-.13-.03-.19-.04.06.01.12.03.19.04ZM115.46,64.85s-.1,0-.14,0c.05,0,.1,0,.14,0ZM116.47,64.76h0c.22-.03.48-.09.78-.16-.3.08-.57.13-.78.16h0ZM62.36,13.32c-.29,0-.58,0-.87,0,.02,0,.03,0,.05,0,.27,0,.54,0,.82.01ZM60.51,13.33h0s0,0,.01,0c0,0,0,0-.01,0ZM60.51,13.33c-.21,0-.43,0-.65,0,.04,0,.07,0,.11,0,.18,0,.36,0,.54,0ZM58.32,13.36c-.09,0-.17,0-.26,0,.09,0,.18,0,.26,0ZM56.42,13.43c-.08,0-.17,0-.25.01.08,0,.17,0,.25-.01ZM54.36,13.57c-.06,0-.12.01-.18.02.06,0,.12-.01.18-.02ZM51.2,13.86c-.95.11-1.99.26-3.07.48,1.08-.22,2.12-.37,3.07-.48ZM39.45,19.47c.94-1.69,2.37-2.96,4.25-3.76.74-.32,1.48-.59,2.23-.81-.74.22-1.49.49-2.23.81-1.88.81-3.31,2.07-4.25,3.76-.38.68-.66,1.41-.89,2.18.23-.76.51-1.5.89-2.18ZM34.74,33.5c-.66.18-1.36.39-2.06.62.71-.23,1.4-.44,2.06-.62ZM29.54,35.35c.67-.31,1.37-.6,2.07-.86-.71.26-1.41.55-2.07.86-.32.15-.62.32-.92.5.29-.19.6-.35.92-.5ZM24.62,43.59c.07-.67.15-1.29.22-1.84.15-1.05.49-2.05.99-2.94-.5.9-.84,1.89-.99,2.94-.08.55-.16,1.16-.22,1.84-.16,1.57-.27,3.42-.23,5.37-.05-1.94.06-3.8.23-5.37ZM27.08,59.33c.3.44.63.86.99,1.24-.36-.39-.69-.8-.99-1.24ZM34.02,63.38c.15,0,.32,0,.5,0h0c-.18,0-.35,0-.5,0ZM45.67,69.57c-.82-2.55-1.16-5.36-1.23-8.05h0c.08,2.68.42,5.5,1.23,8.05.54,1.7,1.3,3.28,2.33,4.63-1.03-1.35-1.79-2.93-2.33-4.63ZM48.83,75.17c.59.61,1.25,1.16,1.99,1.63-.74-.47-1.4-1.02-1.99-1.63ZM54.76,78.14h0s-.02.2-.02.2l.02-.2ZM70.24,76.01h.01s-.01,0-.01,0ZM74.54,67.74c-.22-.2-.38-.35-.52-.46.13.12.29.26.52.46.11.09.22.18.34.26-.12-.08-.23-.16-.34-.26ZM90.67,69.91c.36,0,.73,0,1.09,0-.25,0-.5.01-.75.01-.11,0-.23,0-.34,0ZM93.77,69.85c-.39.02-.79.03-1.18.04.39,0,.79-.03,1.18-.04ZM96.53,69.67c.65-.06,1.31-.14,1.96-.23-.66.09-1.31.16-1.96.23ZM94.56,69.81c.43-.02.87-.06,1.3-.1-.43.04-.87.07-1.3.1Z"/><path class="cls-1" d="M72.55,30.73c3.25,1.17,7.62,2.06,12.29,2.5,2.06.2,4.12.3,6.12.3,4.69,0,12.61-.57,12.98-4.35.19-1.99-1.8-3.73-5.9-5.17-3.2-1.12-7.61-2.01-12.08-2.44-2.12-.2-4.21-.31-6.19-.31-2.37,0-4.5.15-6.36.43-4.16.64-6.37,1.96-6.55,3.93-.19,1.96,1.73,3.68,5.69,5.1ZM75.75,29.62c-.9-.24-1.74-.5-2.52-.78-.83-.3-1.52-.59-2.09-.88.57.29,1.26.58,2.09.88.78.28,1.62.54,2.52.78.9.24,1.86.47,2.86.67-1-.2-1.96-.43-2.86-.67ZM69.94,25.92c.28-.24,1.23-.83,3.94-1.25,1.7-.26,3.69-.4,5.89-.4,1.89,0,3.87.1,5.91.29,9.59.92,14.49,3.31,15.21,4.31-.61.53-3.57,1.65-9.89,1.65-1.86,0-3.83-.1-5.86-.29-4.43-.42-8.54-1.26-11.56-2.34-2.58-.93-3.4-1.68-3.63-1.97ZM85.04,31.23s0,0,0,0h0c-1.69-.16-3.34-.38-4.9-.65,1.56.27,3.21.49,4.9.65ZM90.07,31.52c.2,0,.39,0,.58,0-.19,0-.39,0-.58,0ZM86.79,31.37c.18.01.36.02.54.03-.18-.01-.36-.02-.54-.03ZM88.46,31.47c.2,0,.4.02.6.02-.2,0-.4-.01-.6-.02ZM100.69,30.14s-.07.03-.1.04c.03-.01.07-.03.1-.04ZM100.09,30.38c-.07.03-.15.05-.23.08.08-.03.15-.05.23-.08ZM99.37,30.61c-.09.02-.17.05-.26.07.09-.02.18-.05.26-.07ZM98.48,30.84c-.07.02-.14.03-.21.05.07-.02.14-.03.21-.05ZM97.33,31.07c-.08.01-.17.03-.26.04.08-.01.17-.03.26-.04ZM96.28,31.22c-.12.02-.25.03-.38.05.13-.01.26-.03.38-.05ZM95.1,31.35c-.13.01-.26.02-.4.04.13-.01.26-.02.4-.04ZM93.65,31.45c-.07,0-.14,0-.21.01.07,0,.14,0,.21-.01ZM92.09,31.52c-.13,0-.27,0-.4,0,.13,0,.27,0,.4,0ZM101.63,29.53s-.06.06-.1.09c.04-.03.07-.06.1-.09ZM101.85,29.26s-.04.06-.06.08c.02-.03.04-.06.06-.08ZM101.28,29.82s-.07.05-.11.07c.04-.02.07-.05.11-.07ZM75.1,23.51c.95-.1,1.97-.17,3.03-.2-1.07.03-2.08.1-3.03.2ZM74.93,22.51c.15-.02.32-.03.47-.04-.16.02-.32.03-.47.04ZM76.38,22.38c.2-.01.4-.02.6-.03-.2.01-.41.02-.6.03ZM77.92,22.3c.22,0,.45-.01.68-.02-.23,0-.46,0-.68.02ZM102.95,29.08c-.03.3-.14.58-.32.84-.37.52-1.02.95-1.9,1.31.88-.36,1.54-.79,1.9-1.31.18-.26.29-.54.32-.84.04-.39-.07-.78-.3-1.15.23.37.34.76.3,1.15ZM100.83,26.35c-.56-.33-1.22-.65-1.96-.95.74.3,1.4.62,1.96.95ZM97.71,24.95c-.81-.28-1.69-.55-2.62-.79.93.24,1.81.51,2.62.79ZM80.01,22.27c-.16,0-.33,0-.49,0,.08,0,.16,0,.24,0,.08,0,.16,0,.24,0ZM82.96,22.36c-.1,0-.2-.01-.29-.02.1,0,.2.01.29.02Z"/><path class="cls-1" d="M102.18,61.14s.02.03.02.05c.07.12.16.22.26.31.02.02.03.03.05.05.1.08.22.15.35.2.02,0,.04.01.07.02.13.04.27.07.41.07,0,0,0,0,.02,0,.08,0,.15,0,.23-.02h0l4.31-.74c.55-.09.97-.51,1.09-1.02.04-.17.05-.35.02-.54-.03-.15-.08-.29-.15-.42,0-.02-.01-.03-.02-.05-.07-.12-.16-.22-.26-.31-.02-.02-.03-.03-.05-.05-.1-.08-.22-.15-.35-.2-.02,0-.04-.01-.07-.02-.13-.04-.27-.07-.41-.07,0,0,0,0-.02,0-.08,0-.15,0-.23.02l-4.31.74c-.55.09-.97.51-1.09,1.02-.04.17-.05.35-.02.54.03.15.08.29.15.42Z"/><path class="cls-1" d="M92.95,55.58c2.91,0,5.28-2.37,5.28-5.28,0-.82-.19-1.59-.52-2.28-.32,1.19-1.39,2.06-2.68,2.06-1.54,0-2.78-1.25-2.78-2.78,0-.47.12-.91.32-1.29.21-.39.5-.72.86-.97-.16,0-.32-.02-.48-.02-2.92,0-5.28,2.37-5.28,5.28s2.37,5.28,5.28,5.28Z"/></svg>